<svg width="64" height="112" viewBox="0 0 64 112" fill="none" xmlns="http://www.w3.org/2000/svg">
<g id="Group" opacity="0.1">
<g id="Group_2">
<g id="Group_3">
<path id="Vector" d="M52.5498 38.6729L50.0888 35.8603L58.8781 27.4225L50.0888 18.6332L52.5498 16.1722L63.8001 27.4225L52.5498 38.6729Z" fill="url(#paint0_linear_39_2220)"/>
</g>
<g id="Group_4">
<path id="Vector_2" d="M27.5882 13.7113L25.1272 11.2504L36.3775 0L47.6279 11.2504L45.1668 13.7113L36.3775 4.92199L27.5882 13.7113Z" fill="url(#paint1_linear_39_2220)"/>
</g>
<g id="Group_5">
<path id="Vector_3" d="M7.89987 33.3993L-3.35046 22.1489L-0.889441 19.688L7.89987 28.4773L16.3376 19.688L19.1502 22.1489L7.89987 33.3993Z" fill="url(#paint2_linear_39_2220)"/>
</g>
<g id="Group_6">
<path id="Vector_4" d="M16.3376 91.7607L7.89987 83.323L-0.889441 91.7607L-3.35046 89.2996L7.89987 78.4009L19.1502 89.2996L16.3376 91.7607Z" fill="url(#paint3_linear_39_2220)"/>
</g>
<g id="Group_7">
<path id="Vector_5" d="M36.3775 111.8L25.1272 100.55L27.5882 98.0887L36.3775 106.878L45.1668 98.0887L47.6279 100.55L36.3775 111.8Z" fill="url(#paint4_linear_39_2220)"/>
</g>
<g id="Group_8">
<path id="Vector_6" d="M52.5498 95.6279L50.0888 93.1669L58.8781 84.3776L50.0888 75.5882L52.5498 73.1272L63.8001 84.3776L52.5498 95.6279Z" fill="url(#paint5_linear_39_2220)"/>
</g>
<g id="Group_9">
<path id="Vector_7" d="M41.2992 67.1502L30.0489 55.8998L41.2992 44.6495L43.7602 47.1105L34.9709 55.8998L43.7602 64.6891L41.2992 67.1502Z" fill="url(#paint6_linear_39_2220)"/>
</g>
</g>
</g>
<defs>
<linearGradient id="paint0_linear_39_2220" x1="56.9445" y1="16.1722" x2="56.9445" y2="38.6729" gradientUnits="userSpaceOnUse">
<stop stop-color="#446381"/>
<stop offset="1" stop-color="#446381"/>
</linearGradient>
<linearGradient id="paint1_linear_39_2220" x1="36.3775" y1="0" x2="36.3775" y2="13.7113" gradientUnits="userSpaceOnUse">
<stop stop-color="#446381"/>
<stop offset="1" stop-color="#446381"/>
</linearGradient>
<linearGradient id="paint2_linear_39_2220" x1="7.89986" y1="19.688" x2="7.89986" y2="33.3993" gradientUnits="userSpaceOnUse">
<stop stop-color="#446381"/>
<stop offset="1" stop-color="#446381"/>
</linearGradient>
<linearGradient id="paint3_linear_39_2220" x1="7.89986" y1="78.4009" x2="7.89986" y2="91.7607" gradientUnits="userSpaceOnUse">
<stop stop-color="#446381"/>
<stop offset="1" stop-color="#446381"/>
</linearGradient>
<linearGradient id="paint4_linear_39_2220" x1="36.3775" y1="98.0887" x2="36.3775" y2="111.8" gradientUnits="userSpaceOnUse">
<stop stop-color="#446381"/>
<stop offset="1" stop-color="#446381"/>
</linearGradient>
<linearGradient id="paint5_linear_39_2220" x1="56.9445" y1="73.1272" x2="56.9445" y2="95.6279" gradientUnits="userSpaceOnUse">
<stop stop-color="#446381"/>
<stop offset="1" stop-color="#446381"/>
</linearGradient>
<linearGradient id="paint6_linear_39_2220" x1="36.9046" y1="44.6495" x2="36.9046" y2="67.1502" gradientUnits="userSpaceOnUse">
<stop stop-color="#446381"/>
<stop offset="1" stop-color="#446381"/>
</linearGradient>
</defs>
</svg>
