<svg width="528" height="293" viewBox="0 0 528 293" fill="none" xmlns="http://www.w3.org/2000/svg">
<g opacity="0.04">
<mask id="path-1-outside-1_46_3699" maskUnits="userSpaceOnUse" x="-7" y="-8" width="541" height="309" fill="black">
<rect fill="white" x="-7" y="-8" width="541" height="309"/>
<path d="M102.918 293H156.84C162.692 293 166.454 290.492 168.126 285.058L257.16 11.686C259.25 4.998 255.906 0.39998 248.8 0.39998H207C201.566 0.39998 197.386 2.908 195.714 8.76L130.088 226.12L64.044 8.76C62.372 2.908 58.192 0.39998 52.758 0.39998H10.958C3.852 0.39998 0.508 4.998 2.598 11.686L91.632 285.058C93.304 290.492 97.484 293 102.918 293ZM522.939 280.878L442.265 182.23C474.869 166.764 497.023 134.16 497.023 97.794C497.023 43.872 453.551 0.39998 400.047 0.39998H346.543H298.891C292.621 0.39998 289.277 4.16198 289.277 10.432V283.386C289.277 289.656 292.621 293 298.891 293H336.511C343.199 293 346.543 289.656 346.543 283.386V191.844H382.491L460.239 287.148C463.583 291.746 467.345 293 472.779 293H517.087C525.447 293 527.955 287.148 522.939 280.878ZM346.543 54.322H400.047C421.783 54.322 439.757 73.55 439.757 97.794C439.757 122.038 421.783 140.848 400.047 140.848H346.543V54.322Z"/>
</mask>
<path d="M168.126 285.058L160.519 282.581L160.499 282.643L160.48 282.705L168.126 285.058ZM257.16 11.686L264.767 14.1634L264.782 14.1179L264.796 14.0722L257.16 11.686ZM195.714 8.75999L203.373 11.0723L203.39 11.0152L203.406 10.9578L195.714 8.75999ZM130.088 226.12L122.434 228.446L130.112 253.718L137.747 228.432L130.088 226.12ZM64.044 8.75999L56.3518 10.9578L56.3701 11.0219L56.3895 11.0858L64.044 8.75999ZM2.598 11.686L-5.03784 14.0722L-5.02356 14.1179L-5.00873 14.1634L2.598 11.686ZM91.632 285.058L99.2782 282.705L99.259 282.643L99.2387 282.581L91.632 285.058ZM102.918 301H156.84V285H102.918V301ZM156.84 301C160.881 301 165.024 300.131 168.614 297.638C172.266 295.101 174.529 291.453 175.772 287.411L160.48 282.705C160.051 284.097 159.597 284.42 159.487 284.496C159.316 284.615 158.651 285 156.84 285V301ZM175.733 287.535L264.767 14.1634L249.553 9.20856L160.519 282.581L175.733 287.535ZM264.796 14.0722C266.33 9.16418 266.312 3.46219 262.869 -1.21059C259.427 -5.88239 253.979 -7.60002 248.8 -7.60002V8.39998C249.735 8.39998 250.192 8.55343 250.31 8.60307C250.394 8.63802 250.2 8.56862 249.988 8.28057C249.776 7.99246 249.763 7.78221 249.771 7.85952C249.782 7.97462 249.794 8.43626 249.524 9.29978L264.796 14.0722ZM248.8 -7.60002H207V8.39998H248.8V-7.60002ZM207 -7.60002C203.072 -7.60002 198.944 -6.68767 195.347 -4.16003C191.683 -1.58588 189.277 2.16917 188.022 6.56223L203.406 10.9578C203.823 9.49882 204.343 9.07387 204.546 8.93102C204.815 8.74163 205.494 8.39998 207 8.39998V-7.60002ZM188.055 6.44771L122.429 223.808L137.747 228.432L203.373 11.0723L188.055 6.44771ZM137.742 223.794L71.6985 6.43422L56.3895 11.0858L122.434 228.446L137.742 223.794ZM71.7362 6.56223C70.481 2.16918 68.0745 -1.58588 64.4113 -4.16003C60.8143 -6.68767 56.6864 -7.60002 52.758 -7.60002V8.39998C54.2636 8.39998 54.9427 8.74163 55.2122 8.93102C55.4155 9.07387 55.935 9.49882 56.3518 10.9578L71.7362 6.56223ZM52.758 -7.60002H10.958V8.39998H52.758V-7.60002ZM10.958 -7.60002C5.77925 -7.60002 0.331412 -5.88239 -3.11095 -1.2106C-6.55404 3.46217 -6.5716 9.16417 -5.03784 14.0722L10.2338 9.29978C9.96399 8.43626 9.97625 7.97462 9.98721 7.85952C9.99458 7.78222 9.98223 7.99248 9.76995 8.28058C9.5577 8.56863 9.36407 8.63802 9.44762 8.60307C9.56628 8.55343 10.0227 8.39998 10.958 8.39998V-7.60002ZM-5.00873 14.1634L84.0253 287.535L99.2387 282.581L10.2047 9.20856L-5.00873 14.1634ZM83.9858 287.411C85.2954 291.667 87.7703 295.253 91.3854 297.695C94.9276 300.089 98.9892 301 102.918 301V285C101.413 285 100.667 284.657 100.343 284.438C100.092 284.268 99.6406 283.883 99.2782 282.705L83.9858 287.411ZM522.939 280.878L529.186 275.88L529.159 275.847L529.132 275.814L522.939 280.878ZM442.265 182.23L438.837 175.002L429.602 179.382L436.073 187.294L442.265 182.23ZM346.543 191.844V183.844H338.543V191.844H346.543ZM382.491 191.844L388.69 186.787L386.289 183.844H382.491V191.844ZM460.239 287.148L466.709 282.443L466.579 282.263L466.438 282.091L460.239 287.148ZM346.543 54.322V46.322H338.543V54.322H346.543ZM346.543 140.848H338.543V148.848H346.543V140.848ZM529.132 275.814L448.458 177.166L436.073 187.294L516.747 285.942L529.132 275.814ZM445.694 189.458C480.888 172.763 505.023 137.467 505.023 97.794H489.023C489.023 130.853 468.851 160.765 438.837 175.002L445.694 189.458ZM505.023 97.794C505.023 39.4762 457.992 -7.60002 400.047 -7.60002V8.39998C449.111 8.39998 489.023 48.2678 489.023 97.794H505.023ZM400.047 -7.60002H346.543V8.39998H400.047V-7.60002ZM346.543 -7.60002H298.891V8.39998H346.543V-7.60002ZM298.891 -7.60002C294.133 -7.60002 289.393 -6.12859 285.902 -2.41267C282.485 1.22507 281.277 5.94049 281.277 10.432H297.277C297.277 8.65347 297.742 8.35288 297.564 8.54214C297.491 8.61949 297.449 8.61552 297.566 8.57134C297.711 8.51699 298.115 8.39998 298.891 8.39998V-7.60002ZM281.277 10.432V283.386H297.277V10.432H281.277ZM281.277 283.386C281.277 287.885 282.494 292.619 286.076 296.201C289.658 299.783 294.392 301 298.891 301V285C297.121 285 297.047 284.545 297.39 284.887C297.733 285.23 297.277 285.157 297.277 283.386H281.277ZM298.891 301H336.511V285H298.891V301ZM336.511 301C341.089 301 345.925 299.852 349.602 296.29C353.323 292.686 354.543 287.887 354.543 283.386H338.543C338.543 284.262 338.424 284.722 338.365 284.892C338.318 285.025 338.328 284.935 338.469 284.798C338.802 284.476 338.621 285 336.511 285V301ZM354.543 283.386V191.844H338.543V283.386H354.543ZM346.543 199.844H382.491V183.844H346.543V199.844ZM376.293 196.901L454.041 292.205L466.438 282.091L388.69 186.787L376.293 196.901ZM453.77 291.853C456.122 295.089 458.961 297.577 462.529 299.132C465.975 300.634 469.504 301 472.779 301V285C470.621 285 469.552 284.739 468.922 284.465C468.415 284.243 467.7 283.805 466.709 282.443L453.77 291.853ZM472.779 301H517.087V285H472.779V301ZM517.087 301C522.783 301 529.365 298.938 532.283 292.664C535.154 286.492 532.624 280.177 529.186 275.88L516.693 285.876C517.031 286.299 517.244 286.642 517.373 286.889C517.437 287.012 517.477 287.105 517.501 287.17C517.526 287.234 517.533 287.266 517.533 287.265C517.533 287.264 517.5 287.123 517.519 286.867C517.539 286.603 517.612 286.269 517.776 285.916C517.94 285.562 518.155 285.279 518.365 285.076C518.568 284.879 518.72 284.801 518.741 284.79C518.759 284.782 518.651 284.836 518.372 284.893C518.092 284.949 517.671 285 517.087 285V301ZM346.543 62.322H400.047V46.322H346.543V62.322ZM400.047 62.322C416.75 62.322 431.757 77.3272 431.757 97.794H447.757C447.757 69.7728 426.817 46.322 400.047 46.322V62.322ZM431.757 97.794C431.757 118.156 416.847 132.848 400.047 132.848V148.848C426.72 148.848 447.757 125.92 447.757 97.794H431.757ZM400.047 132.848H346.543V148.848H400.047V132.848ZM354.543 140.848V54.322H338.543V140.848H354.543Z" fill="#EB8382" mask="url(#path-1-outside-1_46_3699)"/>
</g>
</svg>
