<svg width="568" height="585" fill="none" xmlns="http://www.w3.org/2000/svg"><path opacity=".3" d="M328.585 583.829c128.635 0 232.915-104.28 232.915-232.915S457.22 117.999 328.585 117.999c-128.636 0-232.915 104.28-232.915 232.915s104.279 232.915 232.915 232.915z" fill="#4E8FD3"/><path opacity=".3" d="M275.915 580.829c128.635 0 232.915-104.28 232.915-232.915S404.55 114.999 275.915 114.999C147.279 114.999 43 219.279 43 347.914s104.279 232.915 232.915 232.915z" fill="#4E8FD3"/><path d="M303.492 582.829c128.635 0 232.915-104.28 232.915-232.915s-104.28-232.915-232.915-232.915S70.577 221.279 70.577 349.914s104.28 232.915 232.915 232.915z" fill="url(#paint0_linear_39_2251)"/><path d="M428.322 86.825c-3.07-18.936-9.553-35.143-24.566-48.279-2.729-2.388-8.871 2.559-6.312 5.118 16.548 15.866 21.325 32.584 21.837 57.833.17 9.383-.171 20.301-1.195 32.243-.853 9.212 8.53 8.7 9.554 3.07 1.706-11.43 2.559-38.896.682-49.985z" fill="#EB8382"/><path d="M410.239 52.706c-1.365-2.218-2.9-4.265-4.606-6.312-2.388-2.56-5.459-4.777-5.118-8.36-2.559.853-4.777 3.754-2.9 5.46 16.548 15.865 21.325 32.584 21.836 57.832.171 9.383-.17 20.301-1.194 32.243-.17 2.9.512 4.777 1.706 5.971 4.265-9.383 3.924-21.666 4.095-31.219.17-13.307-1.195-26.784-5.63-39.408-2.218-5.63-4.948-11.09-8.189-16.207z" fill="#C37A87"/><path d="M385.161 44.688c-19.448-23.714-54.25-36.85-99.8-19.62-20.642 7.848-35.484 19.96-44.355 36.338-11.942 22.007-12.454 61.586-5.63 88.029a93.654 93.654 0 002.559 9.894c5.971 21.837 17.231 41.626 35.826 55.786 17.401 12.965 39.578 18.254 61.244 14.33 21.666-4.094 40.261-18.083 51.692-35.826 27.466-42.99 31.901-108.159-1.536-148.931z" fill="#521E3F"/><path d="M537.983 456.975c-1.535-8.871-3.582-17.572-6.141-26.272-3.242-10.748-10.577-18.595-14.501-29.002-2.389-6.141-1.024-14.842-3.242-20.983-2.388-6.142-8.871-8.871-11.259-15.013-2.388-6.141-.853-15.524-3.412-21.495-4.606-10.236-9.724-20.472-15.524-30.025-9.724-16.036-22.861-32.755-39.238-42.82-1.535-1.024-3.071-1.877-4.606-2.73-10.577-6.994-24.737-11.601-39.408-17.742-12.624-5.289-62.268-16.377-107.647-16.377-41.967.17-80.352 11.088-84.105 12.112-27.978 7.677-36.508 8.359-61.927 30.878-10.065 8.871-19.96 17.913-30.367 26.272-5.288 4.265-14.33 4.265-19.789 8.018-7.165 5.118-10.918 13.989-18.766 18.254-22.519 12.113-47.938 12.966-62.438 35.485C9.3 375.259 3.5 395.901 3.5 407.502c0 9.383 4.777 17.912 11.771 23.883 13.819 11.772 34.973 12.795 52.203 12.113 25.078-1.194 49.815-8.871 73.187-17.572 22.348-8.359 30.878-.682 29.854 16.719-.853 15.183-1.706 30.366-2.217 45.72-.683 16.548-5.786 43.087-6.298 59.635-.512 18.254 76.018 29.6 95.125 32.5 17.214 2.614 1.168.102 30.5 2.5 49.156 4.019 108.054-2.251 120.875-15.5 2.218-2.218 8.188-15.331 12.282-45.527 1.877-13.819 7.165-18.595 18.254-8.359 13.307 12.453 30.708 20.642 48.791 21.836 19.79 1.365 37.532-9.042 46.232-26.613 7.677-16.036 6.824-34.973 3.924-51.862z" fill="#C5C7D2" fill-opacity=".2"/><path d="M496.22 361.829c-3.07 6.483-5.629 12.795-9.724 18.766-4.606 6.653-9.894 12.794-15.524 18.765-.171.171 0 .342.171.342 6.312-4.607 11.6-10.236 16.206-16.548 4.265-5.971 8.701-13.648 9.213-21.155 0-.17-.342-.341-.342-.17z" fill="#F5F5F5"/><path d="M274.102 291.031c-3.241-6.483-7.165-11.43-14.501-12.625-7.335-1.194-15.012 1.536-21.666 4.265-12.453 5.289-25.078 13.136-34.119 24.055-6.824 8.188 53.909 17.912 63.974 17.912 19.277.171 11.771-22.348 6.312-33.607z" fill="#FFA26E"/><path d="M277.002 308.944c-1.194-3.754-2.218-9.042-7.336-9.554-1.194-.171-4.435 0-6.653.682-3.071 1.024-2.218 3.071-1.365 4.948 1.706 3.753 3.753 6.994 8.53 7.506 3.412.512 7.848-.512 6.824-3.582z" fill="#fff"/><path d="M251.924 314.914c-3.923-6.823-4.606-15.012-5.118-22.689 0-.341-.341-.341-.511 0-.342 1.535-.512 3.412-.683 5.118-2.047 5.288-9.212 3.753-12.965 7.165-3.412 3.241-4.948 7.677-4.265 12.283.17.682.17 1.365.341 2.047 11.43 2.559 24.054 4.606 32.072 5.459-3.412-2.388-6.482-5.288-8.871-9.383z" fill="#F4905D"/><path d="M333.129 238.487c-12.283-1.365-24.907-1.877-37.191-1.365-23.883.853-34.46 21.666-15.183 39.237 24.396 22.519 67.045 25.249 85.982-3.412 6.653-10.065 8.188-25.589-12.795-31.219-7.677-2.047-16.036-2.73-20.813-3.241z" fill="#F5F5F5"/><path d="M534.946 470.67c-4.947-11.089-13.136-20.642-22.519-28.148-15.865-12.795-36.337-18.937-55.103-26.272-10.577-4.095-21.495-8.36-31.049-14.331-4.947-3.07-10.577-7.677-16.548-4.776-4.947 2.388-8.188 8.529-10.577 12.965-2.9 5.459-5.118 11.259-7.165 17.06-5.118 14.842-8.189 22.007 2.9 31.049 7.165 5.8 19.79 15.524 25.078 21.154 9.213 10.236 17.231 21.495 26.784 31.39 13.819 14.501 33.096 24.736 53.227 26.101 19.618 1.194 39.578-10.747 42.649-31.219 1.706-11.771-2.9-24.396-7.677-34.973z" fill="#FFA26E"/><path d="M537.676 518.779c-6.483 4.265-14.672 6.482-22.008 7.165-12.283 1.194-25.248-.683-36.508-5.801-9.382-4.435-17.23-11.771-23.883-19.618-16.207-19.448-27.637-43.673-32.755-68.41-2.388-11.259-4.094-25.248-10.406-35.655-.853.171-1.706.341-2.559.853-4.948 2.388-8.189 8.53-10.577 12.966-2.901 5.459-5.118 11.259-7.166 17.059-5.118 14.842-8.188 22.007 2.901 31.049 7.165 5.8 19.789 15.524 25.077 21.154 9.213 10.236 17.231 21.496 26.784 31.39 13.819 14.501 33.096 24.737 53.227 26.102 15.012.853 30.196-5.971 37.873-18.254z" fill="#F4905D"/><path d="M187.438 324.809c-24.736 6.312-57.491 11.771-83.081 14.16-23.03 2.047-47.597 2.047-67.215 15.865-8.7 6.142-16.037 14.842-22.69 23.202C7.97 386.054 2 395.437.292 405.843c-1.194 7.677 1.195 16.719 7.677 21.495 6.995 5.118 16.037 6.995 24.396 8.189 7.847 1.024 15.865 1.365 23.884 1.535 11.26.342 21.666-1.876 32.243-5.8 11.771-4.265 92.293-36.678 100.311-44.355 6.142-5.971 9.724-14.16 11.601-22.349 5.288-21.666-.683-42.82-12.966-39.749z" fill="#FFA26E"/><path d="M188.974 386.736c2.047-1.876 3.753-4.265 5.288-6.483-.512-1.023-1.023-2.217-1.706-3.241-9.383-17.23-42.479-27.466-74.551-4.435-6.824 4.947-12.624 11.259-19.107 16.548-8.53 6.994-18.595 12.112-28.66 16.548-15.525 6.994-37.532 13.989-53.398 4.435-8.188-4.947-10.406-12.965-10.065-21.495-3.07 5.288-5.63 10.918-6.482 16.889-1.195 7.677 1.194 16.719 7.676 21.495 6.995 5.118 16.037 6.995 24.396 8.189 7.847 1.024 15.865 1.365 23.884 1.535 11.26.342 21.666-1.876 32.243-5.8 11.941-4.094 92.464-36.508 100.482-44.185z" fill="#F4905D"/><path d="M399.662 339.992c-1.365-5.63-3.071-10.747-8.53-13.477-7.165-3.583-22.007-4.777-24.395 5.118-1.877 8.018 3.241 20.301 9.724 25.078 10.747 8.018 29.684 11.089 27.295-1.536-.853-5.118-2.9-10.065-4.094-15.183z" fill="#FFA26E"/><path d="M405.633 359.099c-3.583-2.9-25.931-14.671-29.855-15.354-7.335-1.364-10.577 1.024-17.912 1.024-2.73 0-40.262-12.795-49.133-17.401-3.241-1.706-5.118-5.63-6.312-6.653-6.653-5.971-24.395-9.724-33.266-10.577-2.73-.171-9.383 2.047-16.548 5.288-20.131 9.212-29.684 17.913-40.944 45.379-3.582 8.53-6.653 17.572-7.335 26.784-.512 8.7 3.923 13.989 13.647 13.136 8.701-.682 32.755-20.813 45.55-31.39 5.118-4.265 6.483-2.73 10.065-1.024.683.342 1.536.683 2.559 1.195 2.73 1.364 2.73 2.729 1.877 6.312-.853 3.071-1.536 5.971-1.365 9.041.341 4.265 5.118 6.483 8.53 8.019 6.141 2.729 12.624 4.947 18.766 8.018 5.629 2.729 9.041-1.024 13.477-4.265l3.582-2.559c2.048-1.536 5.46-1.536 6.654-1.024 2.729 1.194 5.288 2.218 7.847 3.412 5.459 2.388 5.118 9.212 2.559 18.254-10.747 38.555 11.942 25.931 27.978 15.866 12.113-7.677 26.443-18.084 37.361-32.073 3.753-5.288 6.824-35.655 2.218-39.408z" fill="#3C68CD"/><path d="M305.321 332.315c-.511-.17-5.971 10.236-6.994 15.525-.341 1.706 39.92 17.23 40.261 16.718 2.559-4.094 4.947-10.406 7.336-16.036.17-.512-26.614-10.406-40.603-16.207z" fill="#2453B2"/><path d="M402.392 399.36c3.753-10.747 3.411-22.348-5.801-30.366-7.677-6.824-19.277-8.189-29.172-7.506-12.112.853-22.007 6.653-31.39 13.818-5.289 4.094-10.236 8.701-16.207 12.112-7.506 4.436-14.501 4.607-22.348 1.536-3.412-1.365-6.824-3.071-9.724-5.459-3.242-2.559-2.559-7.165-1.706-10.748 1.365-6.483 3.753-12.454 4.094-19.107.683-10.065-5.63-18.424-13.818-23.542-21.837-13.478-46.062-3.754-55.445 11.43-3.241 5.118-6.141 11.43-9.382 19.107-3.583 8.53-6.654 17.571-7.336 26.783-.512 8.701 3.924 13.989 13.648 13.136 8.7-.682 32.754-20.812 45.549-31.389 5.118-4.265 6.483-2.73 10.066-1.024.682.341 1.535.682 2.559 1.194 2.729 1.365 2.729 2.73 1.876 6.312-.853 3.071-1.535 5.971-1.365 9.042.342 4.265 5.118 6.483 8.53 8.018 6.142 2.73 12.624 4.947 18.766 8.018 5.63 2.73 9.042-1.023 13.477-4.265l3.583-2.559c2.047-1.535 5.459-1.535 6.653-1.023 2.73 1.194 5.289 2.217 7.848 3.412 5.459 2.388 5.117 9.212 2.559 18.254-10.748 38.555 11.941 25.93 27.978 15.865 11.771-7.506 25.589-17.742 36.508-31.049z" fill="#2453B2"/><path d="M363.495 251.793c-.682-3.924-1.876-7.506-1.706-11.43 0-3.241.683-21.836.341-33.437-.17-4.265-.341-9.212-11.771-10.577-9.041-1.024-50.326 0-55.274.17-6.312.342-8.871 2.901-8.871 8.701-.17 9.895.171 19.96-2.217 29.513-1.706 6.995-4.777 13.989-3.924 21.325.853 7.848 7.847 12.454 14.33 15.866 9.554 4.947 20.472 6.824 31.22 6.994 9.382.171 19.448-1.535 27.978-5.8 8.359-4.606 11.6-12.283 9.894-21.325z" fill="#E87F52"/><path d="M312.316 261.347c-9.383-14.672-2.218-34.29 5.8-47.938 4.265-7.336 9.895-13.136 16.207-17.913-15.524 0-35.996.512-39.408.682-6.312.342-8.871 2.901-8.871 8.701-.171 9.895.17 19.96-2.218 29.513-1.706 6.995-4.777 13.989-3.924 21.325.853 7.847 7.848 12.454 14.331 15.866 9.553 4.947 20.471 6.824 31.219 6.994 9.383.171 19.448-1.535 27.978-5.8 1.024-.512 1.877-1.024 2.73-1.706-16.207 5.288-34.291 5.288-43.844-9.724z" fill="#DB6B45"/><path d="M383.626 151.823c.682-7.506 2.559-33.608 4.094-39.067 2.559-8.018 12.283-8.189 19.448-7.677 4.095.341 8.871 1.194 13.307 2.73 7.677 2.729 11.942 4.776 11.771 11.43-1.024 22.689-4.265 40.09-7.677 50.667-2.9 8.701-6.483 10.236-11.771 10.748-3.753.341-13.989-.682-20.131-1.535-4.435-.683-9.041-2.048-10.065-10.066-.682-5.8.512-12.283 1.024-17.23z" fill="#93426E"/><path d="M392.667 178.948c2.048.341 4.607.683 7.166 1.024 7.676.853 13.136-6.483 16.206-14.842 4.265-11.942 5.118-25.419 4.777-37.702-.171-6.142-.341-13.307-1.535-20.131-4.095-1.365-8.36-2.047-12.113-2.388-7.165-.683-16.889-.342-19.448 7.677-1.706 5.459-3.412 31.56-4.094 39.066-.512 4.948-1.536 11.431-.853 17.231.853 8.018 5.629 9.383 9.894 10.065z" fill="#7C315D"/><path d="M369.637 35.987c-15.866-5.8-42.479-7.165-65.169-2.73-33.096 6.483-55.103 32.585-58.344 73.016-1.706 20.472.171 43.162 4.947 63.974 14.16 61.075 70.457 75.064 99.118 66.363 16.036-4.947 27.636-15.013 36.166-29.343 18.084-30.025 29.173-82.91 18.425-125.9-5.118-20.132-15.695-38.215-35.143-45.38z" fill="#FFA26E"/><path d="M404.609 81.366c-5.118-20.13-15.524-38.214-35.143-45.379-15.865-5.8-42.479-7.165-65.168-2.73-33.096 6.483-55.103 32.585-58.345 73.016-1.706 20.472.171 43.162 4.948 63.974 10.577 45.209 44.185 64.657 72.504 68.069-1.194-.341-2.559-.682-3.753-1.024-11.43-3.412-22.178-8.871-30.879-17.059-8.188-7.507-14.671-17.572-15.353-28.831-.512-10.407 6.141-19.449 14.5-24.908 15.013-9.553 35.144-10.406 52.374-10.065 10.577.171 21.325 1.024 31.902 1.535 10.065.512 21.495.342 31.39 2.901 6.141-25.078 7.506-54.08 1.023-79.499z" fill="#F4905D"/><path d="M387.038 28.822c-22.69-20.13-52.374-24.566-81.375-18.595-26.443 5.459-51.862 20.13-64.998 44.526-6.824 12.794-10.918 27.807-11.601 42.308-.341 9.383 1.365 23.372 8.36 31.049 2.9 3.241 3.753 1.023 3.411-2.048-2.217-17.059 1.024-34.972 11.772-48.79 12.283-15.866 33.949-15.525 52.032-14.16 18.936 1.535 37.361 5.459 56.468 4.265 8.359-.512 19.96-1.877 26.954-7.848 5.801 5.289 10.407 11.26 13.989 18.766 3.583 7.506 4.607 15.525 5.46 23.713.341 4.606 1.876 5.289 3.07.512 6.142-26.613-3.07-55.444-23.542-73.698z" fill="#521E3F"/><path d="M332.788 20.462c-2.218-2.9-4.948-4.264-8.018-4.606-2.901-.511-16.549 0-20.302.683-1.876.34-3.582.682-5.118 1.364-1.706.683-1.023 1.365 0 2.048 12.113 8.018 12.795 30.537 12.795 44.014 0 1.876 1.536 2.388 3.924 2.388 8.018-.17 15.866-.511 23.884-.682 3.07-.17 3.412-.512 3.582-2.73.683-15.354-2.047-30.878-10.747-42.479z" fill="#1B4C9B"/><path d="M318.799 50.317c-1.877-6.312-1.706-13.306 1.023-19.277 2.73-6.142 8.359-8.36 14.501-8.53l-1.535-2.048c-2.218-2.9-4.948-4.264-8.018-4.606-2.901-.511-16.549 0-20.302.683-1.876.34-3.582.682-5.118 1.364-1.706.683-1.023 1.365 0 2.048 12.113 8.018 12.795 30.537 12.795 44.014 0 1.876 1.536 2.388 3.924 2.388 4.265-.17 8.701-.17 12.965-.34-4.776-4.436-8.529-9.725-10.235-15.696z" fill="#103E82"/><path d="M262.331 155.064c-.683-7.506-2.559-33.608-4.095-39.067-2.559-8.018-12.283-8.188-19.448-7.677-4.094.342-8.871 1.195-13.306 2.73-7.677 2.73-11.942 4.777-11.772 11.43 1.024 22.69 4.265 40.091 7.677 50.668 2.9 8.7 6.483 10.235 11.772 10.747 3.753.341 13.989-.682 20.13-1.535 4.436-.683 9.042-2.047 10.065-10.065.512-5.63-.682-12.113-1.023-17.231z" fill="#93426E"/><path d="M258.066 115.997c-2.218-6.994-10.065-8.018-16.719-7.847 7.507 8.871 8.701 23.201 9.383 34.29 1.706 33.096-4.777 38.214-16.718 41.626 4.265.17 13.477-.853 19.107-1.706 4.435-.683 9.041-2.047 10.065-10.065.682-5.801-.512-12.284-.853-17.231-.683-7.336-2.559-33.608-4.265-39.067z" fill="#7C315D"/><path d="M229.576 123.333c-4.435-8.359-16.548-10.747-15.865 2.047 1.194 21.325 4.265 37.873 7.676 47.938 4.436 13.136 12.113 2.901 13.478-3.07 2.9-11.942-.171-37.361-5.289-46.915z" fill="#D3D0FF"/><path d="M229.576 123.333c-3.583-6.824-12.112-9.553-14.842-3.753 4.777-3.412 10.577.512 13.136 7.165 2.218 5.8 3.071 12.454 4.265 18.595 1.535 8.189 2.218 16.719-.682 24.737-.683 2.218-1.877 3.924-3.412 5.63-2.559 2.729-5.118-1.195-6.312-2.901-.342-.511-.683-1.194-1.024-1.876.171.853.512 1.535.682 2.218 4.436 13.136 12.113 2.9 13.478-3.071 2.9-11.771-.171-37.191-5.289-46.744z" fill="#B1B1F2"/><path d="M393.009 51.853c-10.407-1.365-20.984-1.877-31.39-2.048-27.125-.511-81.546 2.048-103.041 9.895-5.46 2.047-16.207 7.677-19.278 18.936-3.583 13.307-2.73 35.997 0 51.35 3.583 20.643 16.548 25.078 26.784 26.784 30.707 5.459 102.017 5.289 144.667-.17 12.283-1.536 23.201-11.942 24.395-23.884 2.559-24.566 1.194-38.896.683-49.303-1.024-24.225-16.378-28.148-42.82-31.56z" fill="#3C68CD"/><path d="M427.469 75.054c-2.047-6.312-6.141-11.26-13.647-14.5-20.131-8.53-85.982-5.972-121.295-2.219-14.501 1.536-24.225 4.777-29.685 10.748-7.676 8.53-6.141 50.326-2.558 60.392 5.117 14.33 18.765 14.842 29.342 15.524 26.784 1.535 102.359 2.047 123.172-4.777 11.942-3.923 16.036-8.7 17.06-29.854.512-11.942-.171-28.32-2.389-35.314z" fill="#1B4C9B"/><path d="M406.486 35.475c-8.018-10.406-18.936-17.4-30.537-23.372C362.472 5.11 348.824 1.185 333.811.333c-27.807-1.366-58.344 5.117-80.522 22.518-5.288 4.094-14.501 11.43-15.524 19.278-.512 3.582 4.094 9.382 7.506 9.724 1.877.17 10.577-1.365 12.965-2.73 2.559-1.535 4.948-3.412 7.166-5.118 12.794-9.895 26.954-17.4 42.649-21.666 17.742-4.777 34.461-2.559 51.009 4.948 6.482 2.9 12.624 6.653 18.595 10.406 4.435 2.73 8.53 5.8 13.477 7.506.682.17 4.094 1.024 7.506.683 3.071-.341 6.142-1.536 7.166-2.73 2.047-2.388 1.876-6.141.682-7.677z" fill="#EB8382"/><path d="M368.101 26.945c-15.524-8.87-32.072-13.306-49.985-10.918-16.036 2.218-31.901 8.7-45.549 17.742-6.312 4.095-13.819 10.066-21.837 8.7-3.241-.511-5.971-3.07-9.383-3.07-1.194 0-2.388.17-3.241.512l-.512 2.047c-.512 3.583 4.094 9.383 7.506 9.724 1.877.17 10.578-1.365 12.966-2.73 2.559-1.535 4.947-3.411 7.165-5.117 12.795-9.895 26.954-17.401 42.649-21.666 17.743-4.777 34.461-2.56 51.009 4.947 6.483 2.9 12.624 6.653 18.595 10.406 4.436 2.73 8.53 5.8 13.478 7.507.682.17 4.094 1.023 7.506.682 2.559-.17 4.947-1.194 6.312-2.047-12.624 3.412-25.59-10.407-36.679-16.719z" fill="#C37A87"/><path d="M237.424 43.664c-6.995 6.824-17.913 23.713-23.884 42.82-4.606 14.842-5.63 30.878-3.753 46.914.341 3.242 1.194 7.166 3.071 10.066 1.364 2.217 4.776 2.388 8.018 1.876 3.241-.512 6.312-1.706 6.482-5.629.342-4.095-.341-8.872-.682-12.283-.682-7.848-4.606-14.331-4.606-22.519.17-28.149 12.795-43.503 23.201-55.445 2.047-1.876-4.094-9.553-7.847-5.8z" fill="#EB8382"/><path d="M295.427 336.41c-6.483-6.824-14.331-12.454-22.349-17.231-8.188-4.776-17.401-9.041-27.125-11.771-12.624-3.412-30.025-7.677-44.867-.17-12.454 6.141-22.348 18.254-29.513 29.854-7.165 11.26-12.625 24.566-12.113 38.214.171 4.094 1.024 8.018 2.559 11.601 0 0 0 .17.171.17.853 1.877 1.876 3.583 2.9 5.118 0 0 0 .171.171.171.17.341.341.512.682.853 3.412 4.777 7.677 9.042 12.454 12.112 7.676 4.948 35.655 5.118 49.473 5.459 6.141.171 11.259-4.435 13.136-7.506 3.241 0 6.312-.853 9.212-2.559 4.095-2.559 6.824-6.994 7.165-11.43.512 0 .853 0 1.365-.17 6.142-1.024 9.212-6.995 10.748-12.625.853-3.071 1.365-8.188-.683-9.894-.682-.512-9.724.511-15.695-3.583-3.753-2.559-6.823-5.971-9.724-9.212-2.559-2.73-6.482-7.165-8.359-11.43-1.876-4.777-.341-6.824 3.924-5.459 10.406 3.07 20.472 7.847 29.513 14.159 7.336 5.118 15.183 10.748 24.566 10.918 5.289.171 10.919-3.07 11.26-8.871.17-6.824-4.606-11.941-8.871-16.718zm131.189 47.938c-.511-4.777-3.923-9.042-6.482-12.966-3.242-4.606-5.971-9.212-9.895-13.306-7.336-7.507-18.766-7.507-28.49-7.848-9.894-.341-19.96-.512-29.854 1.024-7.848 1.194-13.478 4.265-13.819 12.795-.17 5.97 5.289 8.871 10.236 10.235 11.942 3.242 25.419.512 37.02 3.754 5.118 1.364 5.459 3.241 4.265 7.506l-1.024 3.071c-1.876 4.435-6.141 5.971-9.212 7.335-3.753 1.536-8.018 3.412-11.089 4.265-4.436 1.365-8.7 1.877-12.965-.341-3.071-1.535-5.63-4.265-8.872-5.288-7.165-2.559-14.671-2.73-21.836 0-2.9 1.023-5.459 3.07-5.118 5.97-2.218 1.877-2.73 4.607-1.535 8.36 2.388 8.53 5.971 18.766 11.6 25.76.171.171.341.512.683.682.682 3.754 3.753 7.166 7.506 10.066 4.777 3.582 10.065 6.653 15.183 9.894 5.118 3.242 10.918 7.336 16.889 8.36 7.166 1.194 17.06 1.023 23.713-2.047 3.583-1.706 6.824-7.166 8.189-10.578.341-.853.683-1.876.853-2.729a33.484 33.484 0 007.848-5.8c3.582-3.583 4.435-8.53 4.094-13.478 3.753-3.412 7.165-7.335 9.383-11.43 3.241-5.971 2.218-13.989-.853-20.13 2.388-4.265 4.094-8.701 3.582-13.136z" fill="#FFA26E"/><path d="M358.036 179.46c-10.918 3.412-24.225 4.776-41.796 1.535-10.066-1.877-15.184 4.947-12.966 13.477 2.047 7.848 6.653 13.307 12.454 17.06 20.13 12.624 41.455 3.412 48.45-5.118 3.753-4.606 6.141-9.895 6.994-14.842 1.365-9.553-5.63-14.501-13.136-12.112z" fill="#7C2D0E"/><path d="M319.822 209.997c5.289 2.9 11.089 4.265 16.89 4.265 8.018 0 15.694-2.9 20.642-6.483 4.265-3.071 3.241-5.8-1.706-7.506-11.089-3.753-24.225-3.242-34.802 1.706-7.165 3.412-5.8 5.629-1.024 8.018z" fill="#FF61AC"/><path d="M337.564 166.836c.853-.512 1.365-1.024 1.706-1.536 1.195-1.876-3.241-2.047-4.094-.512-.682 1.195.682 3.242 2.388 2.048zm6.654-.683c-.683-.341-1.024-.853-1.365-1.194-1.024-1.536 2.729-1.536 3.412-.512.512 1.024-.683 2.559-2.047 1.706z" fill="#7C2D0E"/><path d="M299.009 347.157c-1.535-1.705-4.094-3.582-6.653-4.094-4.606-1.023-9.724 2.047-7.847 8.53 1.194 4.094 4.947 8.359 9.553 8.018 2.559-.17 4.436-2.047 5.971-3.924 2.047-2.9 1.024-6.141-1.024-8.53zm43.673 12.113c-2.388 3.412-1.876 8.188 1.195 10.406 3.582 2.73 11.43 1.024 13.989-2.218 1.535-1.876 1.876-4.265 1.194-6.312-.853-2.388-.683-3.241-5.63-4.265-3.412-.682-8.53-.853-10.748 2.389z" fill="#fff"/><path d="M378.337 423.244c-7.506 0-15.012 0-22.689.17-2.047 0-4.777.512-6.654-.511-2.559-1.194-21.495-15.354-23.03-16.719-4.606-4.265-6.654-7.506 1.535-12.454-1.023.171-1.876.512-2.9.853-2.9 1.024-5.459 3.071-5.118 5.971-2.218 1.877-2.73 4.607-1.535 8.36 2.388 8.53 5.971 18.765 11.6 25.76.171.171.341.512.683.682.682 3.753 3.753 7.165 7.506 10.066 4.777 3.582 10.065 6.653 15.183 9.894 4.436 2.9 9.554 6.312 14.672 7.848-8.019-4.606-23.884-16.207-26.272-18.937-4.607-5.288 3.753-5.288 11.088-4.265 6.313.853 12.795 1.195 19.107 1.877 1.024.171 3.071-.171.171-.853-9.212-2.388-18.766-3.412-28.149-4.777-2.388-.341-7.506-1.876-11.089-5.118-.853-.853-5.97-6.653-9.382-15.012-2.559-6.483-1.195-5.971 3.582-3.242 4.606 2.73 18.083 10.577 19.789 11.43 2.389 1.195 4.607 1.877 7.848 1.877 8.189 0 16.377-.853 24.566-1.877 2.388-.511 2.218-1.023-.512-1.023zm-109.865-56.638c-.682-.512-9.724.511-15.695-3.583-3.753-2.559-6.824-5.971-9.724-9.212-2.388-2.559-5.971-6.654-7.847-10.577.682 2.559 2.047 4.947 3.241 7.165 2.73 4.777 6.312 9.553 10.236 13.477 4.265 4.265 9.383 5.459 14.33 8.359 4.777 2.73-1.194 9.554-3.412 11.772-3.753 3.582-17.571.853-26.784-3.924-9.041-4.606-17.742-10.407-25.931-15.695-.341-.171-.682.341-.341.512 9.554 8.7 20.643 15.865 32.414 21.154 3.071 1.364 6.141 2.559 9.212 3.412l1.535 1.023c3.924 3.071-.341 7.507-3.07 9.042-5.118 2.9-14.33.682-20.984-1.535-7.165-2.218-14.159-5.46-20.813-8.872-.512-.341-.853.342-.512.683 6.142 4.606 14.331 9.042 23.031 11.942 4.606 1.535 7.506 4.947 1.536 6.653-1.195.341-2.389.682-3.583.853-16.036.853-33.437-3.753-46.914-12.795-12.113-8.189-16.207-21.154-17.401-34.631-1.024 4.435-1.536 8.871-1.365 13.306.17 4.095 1.023 8.019 2.559 11.601 0 0 0 .171.17.171.853 1.876 1.877 3.582 2.901 5.118 0 0 0 .17.17.17.171.341.341.512.683.853 3.412 4.777 7.676 9.042 12.453 12.113 5.459 3.582 21.496 4.606 35.314 5.118h.341c1.194 0 2.389 0 3.412.17h10.577c.683 0 1.365 0 2.047-.17h.342c.682-.171 1.194-.171 1.706-.512.17 0 .341-.171.511-.171.512-.17.853-.341 1.365-.512.341-.17.512-.17.853-.341.171-.17.341-.17.512-.341 2.729-1.535 4.777-3.753 5.8-5.289 3.242 0 6.312-.853 9.212-2.558 4.095-2.559 6.824-6.995 7.166-11.431.511 0 .853 0 1.364-.17 6.142-1.024 9.213-6.995 10.748-12.624.171-2.901.682-8.018-1.365-9.724z" fill="#F4905D"/><path d="M453.059 288.984c-2.729 23.201-12.283 46.061-26.613 64.656-.171.341.171.683.341.341 9.212-7.506 14.672-17.742 19.278-28.319 4.947-11.6 7.847-24.054 7.335-36.678-.17-.171-.341-.171-.341 0zM169.867 270.9c-3.412 13.648-1.877 28.49.512 42.138 0 .341.341.17.511 0 1.024-13.989-.682-28.149-.682-42.138 0-.17-.341-.17-.341 0zm77.792 165.309c18.084 17.231 46.573 35.997 72.163 24.055.341-.171.171-.683-.17-.512-26.955 7.847-50.668-9.042-71.822-23.884-.171 0-.341.171-.171.341zm69.434 29.173c4.776 1.364 9.041.341 12.624-3.242.17-.17 0-.511-.341-.511-3.583 1.876-8.189 3.241-12.113 3.411-.341 0-.341.342-.17.342z" fill="#F5F5F5"/><path d="M413.651 60.553c-20.131-8.53-85.981-5.97-121.295-2.218-14.501 1.536-24.225 4.777-29.684 10.748-1.024 1.194-2.047 3.07-2.73 5.46 4.777-2.901 10.066-5.29 15.695-6.825 11.942-3.241 24.908-4.094 37.191-4.947 24.566-1.535 49.644-1.706 74.21-.683 12.624.512 29.684 1.024 34.29 15.354 2.729 8.36 2.559 17.913 2.388 26.614-.17 9.894-1.194 19.959-4.265 29.342-.511 1.706-1.194 3.412-2.047 4.777 8.53-3.753 11.771-9.895 12.454-28.149.512-11.941-.171-28.49-2.389-35.313-2.047-5.971-6.141-10.919-13.818-14.16z" fill="#103E82"/><path d="M266.254 156.77c30.708 5.459 102.018 5.289 144.667-.17 7.848-1.024 15.013-5.63 19.619-11.772-6.824 5.63-16.889 7.165-20.642 8.018-8.871 1.706-18.425 2.048-26.955 2.559a686.43 686.43 0 01-87.858 1.024c-12.624-.682-27.125-1.535-38.555-7.677-10.406-5.63-13.477-17.401-15.183-28.319-1.706-10.577-1.706-21.837-1.023-32.584.341-5.971 1.364-12.625 3.923-18.425-2.217 2.559-3.923 5.63-4.947 9.212-3.583 13.307-2.73 35.996 0 51.35 3.583 20.643 16.719 25.078 26.954 26.784z" fill="#1B4C9B"/><path d="M242.371 43.493c.682 8.7-7.165 17.06-11.771 23.714-5.801 8.188-9.213 17.4-11.089 27.295-1.706 9.042-.683 17.572 1.535 26.443 1.024 4.606 2.047 9.383 1.365 14.159-.683 5.118-4.265 8.36-8.701 9.213 1.706 1.364 4.436 1.364 7.165.853 3.242-.512 6.313-1.706 6.483-5.63.341-4.094-.341-8.871-.682-12.283-.683-7.848-4.606-14.33-4.606-22.519.17-28.149 12.794-43.502 23.201-55.444 1.365-.853-.341-4.095-2.9-5.8z" fill="#C37A87"/><path d="M565.312 127.598c3.412 4.435 1.195 4.094-2.559 4.265-35.313 1.535-70.798 1.535-106.282 1.706-.341 0-10.236 1.023-.512-2.73 26.272-10.406 53.056-20.301 80.181-27.637 5.63-1.535 5.289-1.194 8.53 1.706 3.241 2.901 6.142 6.142 9.042 9.213 3.923 4.265 8.018 8.7 11.6 13.477zm-381.456 29.854c-27.808-6.141-55.956-11.088-83.934-16.547-8.36-1.706-4.777 2.558-3.412 5.8 2.9 6.994 5.8 13.818 9.212 20.472 2.559 4.947 2.9 4.606 8.359 3.923 23.543-2.729 46.915-6.312 70.116-10.406 9.042-1.536 3.412-2.559-.341-3.242zm313.388-76.257c-4.947-1.706-10.236-2.9-15.524-4.094-3.071-.682-5.63 0-7.336 2.218-7.677 9.894-14.842 20.471-22.007 30.878-4.436 6.312-1.877 4.435 1.876 2.218 14.501-8.701 29.684-16.548 43.844-25.931 4.265-2.9 3.412-3.753-.853-5.289zm-331.983 19.619a316.92 316.92 0 01-11.43 4.436c-5.801 2.217-4.607 2.9-.683 5.118 10.407 5.629 21.154 10.747 31.902 16.036 4.947 2.388 5.118 1.876 2.218-2.389a292.28 292.28 0 00-14.842-20.983c-2.389-3.412-3.583-3.753-7.165-2.218zm310.488 71.31c-6.824-5.63-13.819-10.918-20.984-16.036-2.559-1.877-3.753-1.365-2.388 1.706 4.947 10.918 9.724 22.007 15.012 32.754 2.73 5.63 3.242 5.118 5.459-.17 1.536-3.583 3.071-6.995 4.607-10.407 2.559-5.97 1.706-5.118-1.706-7.847zm-283.363.512c-9.554 7.335-18.937 15.012-27.978 23.03-3.924 3.412-3.242 4.436.853 4.095 3.07-.171 5.971-.341 9.041-.853 4.265-.683 5.801-1.536 9.383-6.654 4.095-5.97 8.018-11.771 11.771-18.083 4.095-7.336-1.194-3.071-3.07-1.535z" fill="#EB8382"/><path d="M475.237 184.577c-.341.171-.853.171-1.194.342-4.777 1.023-7.848-5.289-10.066-8.53a491.651 491.651 0 01-10.065-15.695c-.512-1.024-1.194-1.877-1.706-2.9 4.947 10.918 9.724 22.007 14.842 32.754 2.73 5.63 3.241 5.118 5.459-.17 1.194-1.877 2.047-3.753 2.73-5.801zm78.475-70.627c-1.024-1.194-2.047-2.218-3.071-3.412 1.024 2.218 1.876 4.606 2.9 6.824 1.535 3.241 4.436 9.553-.853 10.577-5.971 1.194-12.454 1.194-18.424 1.706-21.666 1.365-43.503 2.218-65.169 3.241-5.63.171-11.089.512-16.718.853 1.194.341 3.923 0 4.265 0 35.313-.341 70.798-.17 106.282-1.706 3.753-.17 5.971.171 2.559-4.265-3.753-4.947-7.848-9.383-11.771-13.818zM484.62 90.237c-3.924 2.9-7.848 5.97-11.772 8.87-4.435 3.242-8.7 6.654-12.965 9.896 12.795-7.507 25.931-14.33 38.214-22.69 4.265-2.9 3.412-3.753-.853-5.118-3.412-1.194-6.824-2.047-10.236-2.9 1.535 1.365 2.559 2.9 2.73 4.947.341 3.242-2.901 5.289-5.118 6.995zm-292.234 82.399l-.512.511c-2.218 5.971-11.089 16.378-12.454 17.743a52.251 52.251 0 01-10.747 8.7c2.047-.171 3.923-.341 5.8-.682 4.265-.683 5.8-1.536 9.383-6.654 4.094-5.971 8.018-11.771 11.771-18.083 3.924-7.336-1.365-3.071-3.241-1.535zm-15.354-51.862c-4.948-3.071-10.065-6.312-14.672-9.895-2.047-1.535-3.923-3.582-4.265-6.141v-1.195c-1.535.512-2.9 1.195-4.435 1.706-5.8 2.218-4.606 2.901-.682 5.118 10.406 5.63 21.154 10.748 31.901 16.037 1.877.853 2.9 1.364 3.583 1.535-3.583-2.388-7.506-4.777-11.43-7.165zm10.577 39.237c-15.866 1.706-31.902 2.559-47.938 3.583-4.947.341-9.895.512-14.842.341-5.118-.17-10.748-.512-15.354-2.729-4.777-2.218-7.677-6.312-10.918-10.066 2.218 5.46 4.606 10.919 7.336 16.207 2.559 4.948 2.9 4.606 8.359 3.924 23.542-2.73 46.914-6.312 70.116-10.407 1.364-.341 2.388-.682 3.241-.853z" fill="#C37A87"/><defs><linearGradient id="paint0_linear_39_2251" x1="303.492" y1="116.999" x2="303.492" y2="582.829" gradientUnits="userSpaceOnUse"><stop stop-color="#826F8C"/><stop offset="1" stop-color="#446381"/></linearGradient></defs></svg>