<svg width="557" height="587" viewBox="0 0 557 587" fill="none" xmlns="http://www.w3.org/2000/svg">
<g id="illutration">
<path id="Vector" d="M320.61 580.59C396.11 579.253 512.909 550.659 546.528 477.159C558.272 451.49 557.474 413.752 555.88 338.276C555.413 316.094 554.636 283.761 549.191 243.64C537.895 160.299 530.195 103.575 501.068 70.5256C428.095 -12.254 164.477 -9.85181 51.897 139.163C-9.50653 220.451 -18.9562 336.106 37.1974 431.672C99.0287 536.923 219.541 582.372 320.61 580.59Z" fill="url(#paint0_linear_42_3521)" fill-opacity="0.17"/>
<g id="Group">
<path id="Vector_2" opacity="0.5" d="M193.794 574.207C236.944 551.828 308.762 511.781 361.96 477.622C415.159 443.464 440.576 416.668 409.839 398.706C374.669 378.388 308.466 401.945 249.357 440.814C184.632 483.512 155.964 507.069 125.523 530.037C106.017 544.761 116.361 557.128 135.276 568.907C154.487 580.98 169.855 586.575 193.794 574.207Z" fill="url(#paint1_linear_42_3521)"/>
</g>
<g id="screen">
<g id="Group_2">
<path id="Vector_3" d="M232.216 3.72803L514.641 166.124V388.484L232.216 226.089V3.72803Z" fill="#826F8C" fill-opacity="0.9"/>
<path id="Vector_4" d="M520.964 162.39L514.641 166.123V388.484L520.964 384.751V162.39Z" fill="#446381"/>
<g id="Group_3">
<path id="Vector_5" d="M508.786 170.09V302.153L237.602 146.058V14.2278L508.786 170.09Z" fill="#506898"/>
</g>
<path id="Vector_6" d="M341.345 205.789L408.321 244.288L429.632 332.252L293.572 253.854L341.345 205.789Z" fill="#786D8A"/>
<path id="Vector_7" d="M260.552 68.8263C260.552 62.9931 264.299 60.1932 268.748 62.7598C269.685 63.4597 270.856 64.1597 271.793 65.093C273.666 62.2931 276.945 61.5931 280.692 63.6931C285.141 66.2597 288.654 71.8595 290.293 77.6927C291.698 76.7594 293.572 76.7594 295.679 78.1594C298.724 80.026 301.534 83.7592 302.939 87.7258C303.876 87.7258 304.813 87.9591 305.983 88.4257C309.028 90.059 311.604 94.2589 312.306 98.2255L260.552 68.8263Z" fill="white"/>
<path id="Vector_8" d="M491.691 202.056C491.457 194.823 487.241 186.423 481.855 183.39C480.684 182.69 479.513 182.223 478.342 182.223C476.001 176.39 472.254 171.024 467.804 168.457C462.652 165.424 458.203 167.057 456.095 171.957C454.456 168.924 452.114 166.357 449.538 164.957C445.791 162.857 442.747 163.557 440.873 166.59C439.702 165.19 438.531 164.024 437.126 163.324C433.613 161.224 430.569 162.624 429.632 166.357L491.691 202.056Z" fill="white"/>
<path id="Vector_9" d="M314.414 112.459C314.882 108.959 317.224 107.325 320.269 109.192C321.674 109.892 322.845 111.292 324.015 112.925C325.186 110.592 327.762 109.892 330.338 111.525C333.617 113.392 336.427 117.825 337.364 122.258C338.066 122.025 339.237 122.258 340.174 122.725C342.282 123.892 344.155 126.925 344.858 129.958L314.414 112.459Z" fill="white"/>
<path id="Vector_10" d="M410.898 185.723C411.366 182.457 413.474 181.057 416.284 182.69C417.455 183.39 418.626 184.79 419.562 186.19C420.733 184.09 422.841 183.39 425.417 184.79C428.461 186.423 431.037 190.623 431.74 194.59C432.443 194.356 433.379 194.59 434.316 195.056C436.424 196.223 438.063 199.023 438.766 201.589L410.898 185.723Z" fill="white"/>
<path id="Vector_11" d="M248.609 97.2924C249.077 94.0258 251.185 92.6259 253.995 94.2592C255.166 94.9592 256.337 96.3591 257.273 97.7591C258.444 95.6591 260.552 94.9592 263.128 96.3591C266.172 97.9924 268.748 102.192 269.451 106.159C270.153 105.926 271.09 106.159 272.027 106.626C274.135 107.792 275.774 110.592 276.476 113.159L248.609 97.2924Z" fill="white"/>
<path id="Vector_12" d="M392.631 161.924C393.1 158.657 395.207 157.257 398.018 158.891C399.189 159.591 400.359 160.99 401.296 162.39C402.467 160.29 404.575 159.59 407.151 160.99C410.195 162.624 412.771 166.824 413.474 170.79C414.176 170.557 415.113 170.79 416.05 171.257C418.157 172.423 419.797 175.223 420.499 177.79L392.631 161.924Z" fill="white"/>
<path id="Vector_13" d="M430.569 223.522C431.506 219.789 434.784 222.589 437.595 224.222C435.955 219.089 437.126 213.956 441.107 216.756C441.107 214.422 441.81 212.089 443.683 212.789C444.152 212.789 444.386 213.022 444.854 213.489C444.386 211.389 444.62 209.523 445.557 208.356C448.133 205.789 452.114 209.989 453.285 214.889C456.329 214.422 460.545 215.589 462.418 221.189C467.57 220.256 472.722 231.922 470.38 235.655C473.659 238.222 475.532 244.988 472.722 245.922C478.108 253.388 477.874 263.654 472.02 264.121C472.722 271.354 467.336 274.154 462.652 266.921C461.95 267.154 461.481 267.388 460.779 267.388C460.076 271.121 459.374 275.787 459.374 279.521C459.14 286.287 459.374 294.687 459.374 302.62C459.374 309.387 460.31 318.72 460.545 321.286L449.304 314.753C450.006 313.12 451.646 307.987 452.114 302.853C452.582 296.787 452.817 280.221 450.943 275.787C449.07 271.588 443.683 263.421 442.044 257.355C441.342 255.021 440.873 252.688 440.639 250.821C436.19 247.788 431.74 240.322 434.784 234.955C432.208 231.922 429.867 227.022 430.569 223.522ZM444.152 259.221C446.962 264.354 452.348 272.988 452.348 272.988C452.348 272.988 452.348 266.921 452.817 261.788C452.582 261.321 452.582 260.855 452.348 260.621C450.475 260.855 448.367 258.988 446.494 255.955C445.791 255.021 445.089 253.855 444.62 252.688C443.918 252.921 442.981 252.921 442.278 252.455C442.513 254.321 442.981 256.888 444.152 259.221Z" fill="#EFC8C5"/>
<path id="Vector_14" d="M322.845 150.957C321.908 146.057 318.629 145.124 315.819 143.724C317.458 140.457 316.288 133.924 312.306 132.291C312.306 129.958 311.604 126.924 309.73 125.291C309.262 125.058 309.028 124.825 308.559 124.825C309.028 123.425 308.794 121.091 307.857 118.758C305.281 113.391 301.3 112.925 300.129 116.425C297.084 112.458 292.869 108.725 290.996 112.225C285.844 105.225 280.692 111.058 283.034 117.591C279.755 116.191 277.881 121.091 280.692 125.291C275.305 126.458 275.54 136.958 281.394 144.424C280.692 150.957 286.078 159.824 290.762 158.19C291.464 159.124 291.932 160.057 292.635 160.99C293.338 165.423 294.04 171.023 294.04 174.756C294.274 181.756 294.04 189.923 294.04 197.856C294.04 204.622 293.103 212.789 292.869 215.122L304.11 221.655C303.407 219.322 301.768 212.089 301.3 206.489C300.831 199.722 300.597 182.923 302.471 181.056C304.344 179.19 309.73 176.856 311.37 172.89C312.072 171.257 312.541 169.623 312.775 168.223C317.224 170.323 321.674 167.757 318.629 159.357C321.205 157.724 323.781 155.624 322.845 150.957ZM309.262 171.257C306.452 173.357 301.066 175.456 301.066 175.456C301.066 175.456 301.066 169.39 300.597 163.79C300.831 163.557 300.831 163.323 301.066 163.09C302.939 165.657 305.047 166.123 306.92 165.19C307.623 164.957 308.325 164.723 308.794 164.023C309.496 164.957 310.433 165.89 311.136 166.59C310.901 168.457 310.433 170.323 309.262 171.257Z" fill="#EFC8C5"/>
<path id="Vector_15" d="M436.189 300.053C435.955 298.887 436.189 297.72 436.892 297.02C438.063 295.853 439.702 296.553 441.107 297.953C441.341 296.32 441.81 294.92 442.98 295.153C443.917 295.387 444.854 296.32 445.791 297.487C445.557 296.087 445.791 294.92 446.493 294.22C447.43 292.82 449.303 293.287 450.943 294.453C452.582 295.62 453.753 297.953 454.455 300.287C454.924 300.52 455.392 300.987 456.095 301.453C457.266 302.153 458.202 302.853 459.139 304.02C460.544 305.887 461.013 307.986 460.778 309.853C462.652 311.02 464.76 312.886 465.696 315.92C466.633 319.42 465.228 320.586 463.354 320.819C463.823 322.219 464.057 323.619 463.589 324.786C462.886 327.586 460.31 326.653 458.202 325.253C456.563 327.353 453.05 325.486 450.709 322.219C448.835 323.153 444.854 320.819 443.215 316.853C441.81 318.253 439.702 317.786 437.594 315.22C435.252 312.42 435.252 309.386 436.189 307.52C435.252 306.587 434.55 304.953 434.316 303.553C433.379 300.753 434.55 299.587 436.189 300.053Z" fill="#F5E2E1"/>
<path id="Vector_16" d="M286.078 203.923C285.844 202.756 286.078 201.589 286.781 200.889C287.952 199.723 289.591 200.423 290.996 201.823C291.23 200.189 291.698 198.79 292.869 199.023C293.806 199.256 294.743 200.189 295.68 201.356C295.445 199.956 295.679 198.79 296.382 198.09C297.319 196.69 299.192 197.156 300.832 198.323C302.471 199.49 303.642 201.823 304.344 204.156C304.813 204.389 305.281 204.856 305.984 205.323C307.154 206.023 308.091 206.723 309.028 207.889C310.433 209.756 310.901 211.856 310.667 213.722C312.541 214.889 314.648 216.756 315.585 219.789C316.522 223.289 315.117 224.456 313.243 224.689C313.712 226.089 313.946 227.489 313.477 228.655C312.775 231.455 310.199 230.522 308.091 229.122C306.452 231.222 302.939 229.355 300.597 226.089C298.724 227.022 294.743 224.689 293.103 220.722C291.698 222.122 289.591 221.656 287.483 219.089C285.141 216.289 285.141 213.256 286.078 211.389C285.141 210.456 284.439 208.823 284.205 207.423C283.268 204.623 284.673 203.223 286.078 203.923Z" fill="#F5E2E1"/>
<path id="Vector_17" d="M259.147 202.289C258.912 201.589 259.147 200.656 259.615 200.422C260.318 199.723 261.254 200.189 262.191 201.122C262.191 200.189 262.659 199.256 263.362 199.489C263.83 199.489 264.533 200.189 265.001 200.889C264.767 199.956 265.001 199.256 265.47 198.789C266.172 197.856 267.109 198.089 268.28 199.023C269.217 199.723 270.153 201.122 270.622 202.522C270.856 202.756 271.324 202.989 271.793 203.222C272.495 203.689 272.964 203.922 273.666 204.856C274.603 206.022 274.837 207.422 274.603 208.589C275.774 209.289 277.179 210.456 277.647 212.322C278.35 214.655 277.413 215.355 276.242 215.355C276.476 216.055 276.71 216.989 276.476 217.689C276.008 219.322 274.369 218.855 272.963 217.922C272.027 219.089 269.685 217.922 268.28 216.055C267.109 216.522 264.533 215.122 263.596 212.556C262.659 213.489 261.254 213.255 260.083 211.622C258.678 209.989 258.678 208.122 259.147 206.722C258.678 206.022 258.21 205.089 257.976 204.389C257.507 202.756 258.21 201.822 259.147 202.289Z" fill="#F5E2E1"/>
<path id="Vector_18" d="M425.417 273.221C425.183 272.521 425.417 271.587 425.886 271.354C426.588 270.654 427.525 271.121 428.462 272.054C428.462 271.121 428.93 270.187 429.633 270.421C430.101 270.421 430.803 271.121 431.272 271.821C431.038 270.887 431.272 270.187 431.74 269.721C432.443 268.787 433.379 269.021 434.55 269.954C435.487 270.654 436.424 272.054 436.892 273.454C437.126 273.687 437.595 273.921 438.063 274.154C438.766 274.621 439.234 274.854 439.937 275.787C440.873 276.954 441.107 278.354 440.873 279.52C442.044 280.22 443.449 281.387 443.918 283.254C444.62 285.587 443.684 286.287 442.513 286.287C442.747 286.987 442.981 287.92 442.747 288.62C442.278 290.254 440.639 289.787 439.234 288.854C438.297 290.02 435.955 288.854 434.55 286.987C433.379 287.454 430.803 286.054 429.867 283.487C428.93 284.42 427.525 284.187 426.354 282.554C424.949 280.92 424.949 279.054 425.417 277.654C424.949 276.954 424.48 276.021 424.246 275.321C423.544 273.454 424.246 272.754 425.417 273.221Z" fill="#F5E2E1"/>
<path id="Vector_19" d="M249.545 172.424C249.311 171.49 249.545 170.557 250.014 170.09C250.95 169.157 252.121 169.857 253.292 171.024C253.526 169.857 253.761 168.69 254.932 168.69C255.634 168.69 256.571 169.624 257.039 170.557C256.805 169.39 257.039 168.457 257.508 167.757C258.21 166.824 259.615 166.824 261.02 167.99C262.191 168.924 263.362 170.79 263.831 172.657C264.299 172.89 264.533 173.124 265.236 173.59C266.172 174.057 266.875 174.523 267.577 175.69C268.514 177.323 268.983 178.957 268.983 180.357C270.622 181.29 272.261 182.69 272.964 185.257C273.666 188.056 272.495 188.99 271.09 189.223C271.559 190.156 271.559 191.323 271.324 192.256C270.622 194.356 268.748 193.89 266.875 192.49C265.47 194.123 262.66 192.723 261.02 190.156C259.615 190.856 256.337 188.99 255.166 185.723C253.995 186.89 252.356 186.423 250.482 184.557C248.609 182.223 248.609 179.89 249.311 178.257C248.609 177.557 247.906 176.157 247.672 175.223C247.438 172.89 248.374 171.957 249.545 172.424Z" fill="#F5E2E1"/>
<path id="Vector_20" d="M472.956 302.153C472.722 301.22 472.956 300.287 473.425 299.82C474.361 298.887 475.532 299.587 476.703 300.753C476.937 299.587 477.172 298.42 478.342 298.42C479.045 298.42 479.982 299.353 480.45 300.287C480.216 299.12 480.45 298.187 480.918 297.487C481.621 296.553 483.026 296.553 484.431 297.72C485.602 298.653 486.773 300.52 487.241 302.387C487.71 302.62 487.944 302.853 488.647 303.32C489.583 303.787 490.286 304.253 490.988 305.42C491.925 307.053 492.393 308.686 492.393 310.086C494.033 311.02 495.672 312.42 496.375 314.986C497.077 317.786 495.906 318.719 494.501 318.953C494.969 319.886 494.969 321.053 494.735 321.986C494.033 324.086 492.159 323.619 490.286 322.219C488.881 323.853 486.071 322.453 484.431 319.886C483.026 320.586 479.748 318.719 478.577 315.453C477.406 316.62 475.766 316.153 473.893 314.286C472.02 311.953 472.02 309.62 472.722 307.986C472.02 307.286 471.317 305.886 471.083 304.953C470.849 302.62 471.785 301.687 472.956 302.153Z" fill="#F5E2E1"/>
<path id="Vector_21" d="M370.618 237.522L375.536 225.156L377.644 226.322L375.302 240.089C373.897 239.389 372.257 238.455 370.618 237.522Z" fill="white"/>
<path id="Vector_22" d="M364.295 252.922L369.447 240.089C371.087 241.022 372.96 241.955 374.833 242.889L372.257 257.355C369.681 255.955 367.105 254.322 364.295 252.922Z" fill="white"/>
<path id="Vector_23" d="M357.27 269.954L363.358 255.255C366.169 256.888 368.979 258.521 371.789 260.155L368.276 276.721C364.764 274.388 361.017 272.054 357.27 269.954Z" fill="white"/>
<path id="Vector_24" d="M367.808 280.687L364.764 294.92L350.244 286.52L355.865 273.221C359.846 275.554 363.827 278.121 367.808 280.687Z" fill="white"/>
</g>
<path id="Vector_25" d="M520.964 162.391L514.641 166.124L232.216 3.7281L238.539 -0.00512695L520.964 162.391Z" fill="#826F8C"/>
</g>
<g id="men">
<g id="Group_4">
<path id="Vector_26" d="M230.103 240.379C236.186 240.379 240.916 243.41 240.916 246.776C240.916 250.48 236.186 253.173 230.103 253.173C224.021 253.173 219.29 250.143 219.29 246.776C219.29 243.41 224.359 240.379 230.103 240.379Z" fill="#002F68"/>
<path id="Vector_27" d="M230.441 240.379C234.834 240.379 238.551 242.399 238.551 244.756C238.551 247.113 234.834 249.133 230.441 249.133C226.048 249.133 222.331 247.113 222.331 244.756C222.331 242.399 226.048 240.379 230.441 240.379Z" fill="#DF8083"/>
<path id="Vector_28" d="M230.103 251.49C230.103 251.49 228.076 257.214 228.076 264.284C227.738 271.354 228.414 282.801 224.021 287.851C219.628 293.238 215.573 286.505 215.573 279.098C215.235 271.691 219.628 247.113 219.628 247.113L230.103 251.49Z" fill="#002F68"/>
</g>
<path id="Vector_29" d="M229.09 264.284C229.09 264.284 227.738 262.601 225.711 263.274C224.359 263.611 221.656 265.294 220.642 265.294C219.628 265.294 217.263 263.274 217.263 263.274L218.277 257.214C218.277 257.214 212.194 259.571 211.18 264.958C209.829 270.344 207.463 271.354 202.057 273.375C196.65 275.395 190.906 279.098 190.906 279.098L199.353 292.565C199.353 292.565 212.87 280.445 214.222 279.098C215.573 277.751 220.304 273.038 221.318 272.028C221.994 271.018 224.697 268.324 225.711 267.651C226.387 266.304 229.09 264.284 229.09 264.284Z" fill="#FFC5B3"/>
<path id="Vector_30" d="M227.738 473.362C227.738 473.362 211.18 504.336 207.463 517.467C205.436 524.537 200.705 550.798 200.705 550.798C200.705 550.798 203.746 546.758 208.477 545.411C211.518 544.738 215.911 544.065 218.614 547.768C223.345 553.828 224.021 558.205 216.587 564.939C213.546 567.969 207.801 572.683 203.07 577.059C197.326 582.11 190.567 587.16 184.823 586.823C178.74 586.486 174.685 583.456 175.023 576.386C175.361 572.346 178.402 565.949 178.402 563.592C179.078 557.195 180.43 517.467 183.133 492.889C184.485 480.432 187.864 473.362 187.864 473.362H227.738Z" fill="#FFC5B3"/>
<path id="Vector_31" d="M158.466 434.307C158.466 434.307 141.908 465.282 138.191 478.412C136.163 485.483 129.067 515.11 129.067 515.11C129.067 515.11 138.528 507.367 147.652 510.734C156.1 513.764 151.707 519.824 144.611 526.221C141.57 529.251 137.177 532.281 132.446 536.321C126.701 541.372 125.012 543.055 121.633 544.065C115.888 545.748 108.792 545.075 109.13 538.005C109.468 533.965 109.806 526.894 110.144 524.538C110.819 518.141 112.171 478.412 114.874 453.835C116.226 441.378 119.605 434.307 119.605 434.307H158.466Z" fill="#FFC5B3"/>
<path id="Vector_32" d="M188.202 398.956C188.202 398.956 212.87 433.297 220.304 447.774C222.669 452.488 229.09 462.925 229.09 467.975C229.09 473.699 227.062 480.432 227.062 480.432C227.062 480.432 212.194 492.553 200.029 490.533C185.836 488.176 181.443 480.096 181.443 480.096C181.443 480.096 161.506 455.855 153.059 447.774C144.611 439.694 130.418 422.86 125.687 410.74C121.97 401.649 119.267 378.418 125.687 371.011C132.108 363.604 188.202 398.956 188.202 398.956Z" fill="url(#paint2_linear_42_3521)"/>
<path id="Vector_33" d="M157.451 382.459L155.762 431.951C155.762 431.951 154.072 449.795 153.059 456.528C147.314 462.252 140.894 464.945 134.811 464.272C121.632 462.252 112.171 453.498 112.171 453.498C112.171 453.498 98.6541 401.986 101.357 390.539C104.061 379.092 113.185 366.298 113.185 366.298L157.451 382.459Z" fill="url(#paint3_linear_42_3521)"/>
<path id="Vector_34" d="M184.485 271.354C184.485 271.354 196.988 274.721 201.043 282.464C205.773 291.218 210.504 306.032 206.111 320.846C201.718 335.66 191.243 360.574 189.215 365.288C187.526 370.001 195.298 378.082 193.608 381.448C191.581 384.815 187.526 389.192 189.891 390.539C192.257 391.886 193.608 399.293 193.608 399.293C193.608 399.293 161.506 413.77 140.893 405.689C120.619 397.609 103.723 381.112 103.723 381.112C103.723 381.112 106.088 371.348 110.143 365.961C114.198 360.574 110.819 351.147 114.536 348.454C118.253 345.76 125.349 344.414 124.674 340.037C123.998 335.66 120.956 293.238 131.094 279.771C141.231 266.304 159.817 264.62 159.817 264.62L184.485 271.354Z" fill="#446381"/>
<g id="Group_5">
<path id="Vector_35" d="M167.927 205.364C156.438 207.048 147.652 213.108 147.652 220.178C147.652 220.515 147.652 220.515 147.652 220.852C147.652 222.198 148.328 223.545 149.004 224.892C150.017 223.208 151.369 221.525 153.397 220.178C157.114 217.485 162.182 215.465 167.927 214.455V205.364Z" fill="#0E58C4"/>
<path id="Vector_36" d="M167.927 205.701C156.438 207.385 147.99 213.445 147.99 220.515C147.99 220.852 147.99 220.852 147.99 221.189C147.99 222.535 148.666 223.882 149.341 225.229C150.355 223.545 151.707 221.862 153.734 220.515C157.114 217.822 162.182 215.802 167.927 215.128V205.701Z" fill="#37A0F5"/>
<g id="Group_6">
<path id="Vector_37" d="M186.174 210.415L216.587 227.922C218.276 228.932 219.966 227.922 219.966 225.566V213.445C219.966 211.088 218.614 208.395 216.587 207.385L186.174 189.878C184.485 188.868 182.795 189.878 182.795 192.234V204.355C183.133 206.712 184.485 209.405 186.174 210.415Z" fill="#786D8A"/>
<path id="Vector_38" d="M215.235 229.942L218.614 227.922L217.6 225.566L213.545 227.249C213.545 227.586 215.235 229.942 215.235 229.942Z" fill="#7A6D8B"/>
<g id="Group_7">
<path id="Vector_39" d="M180.768 191.561L184.147 189.541L185.498 190.888L182.457 193.918L180.768 191.561Z" fill="#806E8B"/>
</g>
<path id="Vector_40" d="M182.795 212.435L213.208 229.942C214.897 230.952 216.587 229.942 216.587 227.586V215.465C216.587 213.108 215.235 210.415 213.208 209.405L182.795 191.897C181.106 190.887 179.416 191.897 179.416 194.254V206.375C179.754 208.731 181.106 211.425 182.795 212.435Z" fill="url(#paint4_linear_42_3521)"/>
<path id="Vector_41" d="M180.768 191.561L168.941 198.294L203.408 236.676L215.235 229.942L180.768 191.561Z" fill="#A676D4"/>
<g id="Group_8">
<path id="Vector_42" d="M213.208 228.933L208.477 231.626C207.463 231.963 206.787 231.626 206.787 230.28V224.219C206.787 223.209 207.463 221.526 208.477 221.189L213.208 218.496C214.221 218.159 214.897 218.496 214.897 219.843V225.903C214.897 227.25 214.221 228.596 213.208 228.933Z" fill="#41A0E2"/>
<path id="Vector_43" d="M214.221 218.496L213.883 218.159L213.545 218.496L214.221 218.834V218.496Z" fill="#41A0E2"/>
<path id="Vector_44" d="M207.125 231.627H207.801L207.125 231.289V231.627Z" fill="#41A0E2"/>
<path id="Vector_45" d="M212.869 228.933L208.139 231.626C207.125 231.963 206.449 231.626 206.449 230.28V224.219C206.449 223.209 207.125 221.526 208.139 221.189L212.869 218.496C213.883 218.159 214.559 218.496 214.559 219.843V225.903C214.559 226.913 213.883 228.26 212.869 228.933Z" fill="white"/>
<path id="Vector_46" d="M212.532 223.883C212.532 225.229 211.518 226.913 210.504 227.586C209.491 228.259 208.477 227.586 208.477 226.239C208.477 224.893 209.491 223.209 210.504 222.536C211.856 221.526 212.532 222.199 212.532 223.883Z" fill="#786D8A"/>
</g>
<path id="Vector_47" d="M171.306 219.169L201.719 236.676C203.408 237.686 205.098 236.676 205.098 234.319V222.199C205.098 219.842 203.746 217.149 201.719 216.138L171.306 198.631C169.617 197.621 167.927 198.631 167.927 200.988V213.108C167.927 215.465 169.279 218.159 171.306 219.169Z" fill="#002F68"/>
<path id="Vector_48" d="M198.339 239.706L203.746 236.676C203.746 236.676 201.718 233.309 201.381 233.309L196.988 234.319L198.339 239.706Z" fill="#002F68"/>
<path id="Vector_49" d="M163.872 200.988L168.941 198.295L170.968 200.315L168.603 203.682L163.872 200.988Z" fill="#002F68"/>
<g id="Group_9">
<path id="Vector_50" d="M167.927 213.108V202.671C166.913 202.335 165.899 202.335 165.224 202.335C164.21 202.335 163.534 203.345 163.534 205.028V216.475C163.534 218.495 164.21 220.515 165.9 221.862C166.237 221.862 166.913 222.535 167.589 222.535C169.954 223.545 176.375 225.902 181.444 228.932C184.823 230.952 191.919 236.339 195.636 239.033C196.988 240.043 198.339 239.033 198.339 237.013V235.666L170.968 219.842C169.279 218.159 167.927 215.465 167.927 213.108Z" fill="#002F68"/>
<path id="Vector_51" d="M196.312 220.179C194.285 217.485 189.216 212.098 181.782 208.058C177.051 205.365 171.307 203.681 167.927 202.671V213.108C167.927 215.465 169.279 218.158 171.307 219.169L198.678 234.992V225.229C198.678 222.872 197.326 221.525 196.312 220.179Z" fill="#002F68"/>
</g>
<g id="Group_10">
<path id="Vector_52" d="M176.375 208.732C176.375 208.059 176.375 207.385 176.713 207.049C174.347 206.038 172.658 207.722 172.658 210.752C172.658 214.119 174.685 218.159 177.388 219.506C179.416 220.852 181.105 219.842 181.781 217.822C181.443 217.822 181.443 217.486 181.105 217.486C178.402 216.139 176.375 212.099 176.375 208.732Z" fill="#002F68"/>
<path id="Vector_53" d="M177.05 207.048C176.712 207.048 176.712 206.711 176.374 206.711C176.374 207.385 176.037 207.721 176.037 208.395C176.037 211.762 178.064 215.802 180.767 217.149C181.105 217.149 181.105 217.485 181.443 217.485C181.443 216.812 181.781 216.475 181.781 215.802C181.781 212.435 179.754 208.395 177.05 207.048Z" fill="#41A0E2"/>
</g>
<g id="Group_11">
<path id="Vector_54" d="M190.567 216.812C190.567 216.139 190.567 215.466 190.905 215.129C188.54 214.119 186.85 215.802 186.85 218.833C186.85 222.199 188.878 226.24 191.581 227.586C193.609 228.933 195.298 227.923 195.974 225.903C195.636 225.903 195.636 225.566 195.298 225.566C192.595 224.219 190.567 220.179 190.567 216.812Z" fill="#002F68"/>
<path id="Vector_55" d="M191.243 215.129C190.905 215.129 190.905 214.792 190.567 214.792C190.567 215.465 190.229 215.802 190.229 216.476C190.229 219.842 192.257 223.882 194.96 225.229C195.298 225.229 195.298 225.566 195.636 225.566C195.636 224.893 195.974 224.556 195.974 223.882C195.974 220.852 193.947 216.812 191.243 215.129Z" fill="#41A0E2"/>
</g>
<path id="Vector_56" d="M193.271 210.078L182.12 203.345L183.471 202.671L194.622 209.068L193.271 210.078Z" fill="#002F68"/>
</g>
</g>
<path id="Vector_57" d="M184.485 208.394C178.064 203.681 165.224 205.364 159.817 216.811C156.776 223.208 161.169 240.379 161.844 252.5C162.52 262.263 159.141 267.987 159.141 267.987C159.141 267.987 159.141 267.987 167.589 271.354C176.037 274.721 184.823 271.354 184.823 271.354L184.485 256.54C184.485 256.54 193.609 255.193 194.96 253.846C198.677 250.479 200.705 240.042 199.015 226.575C196.312 206.711 186.85 210.078 184.485 208.394Z" fill="#FFC5B3"/>
<path id="Vector_58" d="M228.752 257.55C228.752 257.55 229.428 258.223 230.103 259.233C230.779 260.243 230.441 261.253 229.765 261.253C229.428 261.59 229.09 261.59 229.09 261.59C229.09 261.59 229.765 262.937 230.441 263.947C230.779 264.957 229.427 265.63 229.09 265.63C228.752 265.63 230.103 266.64 230.103 267.65C230.103 268.66 228.076 268.324 228.076 268.324C228.076 268.324 227.4 260.243 228.752 257.55Z" fill="#FFC5B3"/>
<g id="Group_12">
<path id="Vector_59" d="M267.612 260.917C273.694 260.917 278.425 263.947 278.425 267.314C278.425 271.017 273.694 273.711 267.612 273.711C261.529 273.711 256.799 270.681 256.799 267.314C256.799 263.61 261.529 260.917 267.612 260.917Z" fill="#002F68"/>
<path id="Vector_60" d="M267.949 260.917C272.342 260.917 276.059 262.937 276.059 265.294C276.059 267.65 272.342 269.671 267.949 269.671C263.557 269.671 259.839 267.65 259.839 265.294C259.839 262.6 263.557 260.917 267.949 260.917Z" fill="#DD8084"/>
<path id="Vector_61" d="M267.611 271.691C267.611 271.691 265.584 277.414 265.584 284.485C265.246 291.555 265.922 303.002 261.529 308.052C257.136 313.439 253.081 306.706 253.081 299.299C252.743 291.892 257.136 267.314 257.136 267.314L267.611 271.691Z" fill="#002F68"/>
</g>
<path id="Vector_62" d="M195.298 278.761C202.394 279.434 216.249 306.705 222.669 320.173C227.4 315.796 236.862 307.715 247.675 300.645C250.716 298.625 248.351 285.495 254.433 281.791C254.771 285.495 258.15 285.495 260.178 285.158C264.233 284.821 265.585 283.811 265.585 281.118C266.598 280.781 267.95 280.781 269.302 282.128C270.653 281.791 273.357 283.811 272.681 285.831C275.384 287.851 274.708 292.902 273.019 295.258C269.302 300.308 261.867 305.695 257.475 311.419C253.42 316.806 232.469 344.75 217.938 349.127C216.925 348.79 212.87 348.79 210.166 346.097C200.705 336.67 186.512 312.766 185.836 298.625C185.161 287.178 190.229 278.088 195.298 278.761Z" fill="#FFC5B3"/>
<path id="Vector_63" d="M192.595 231.963C193.608 228.596 195.974 220.852 196.312 217.822C196.987 214.119 197.325 208.732 192.257 203.682C187.188 198.631 169.954 196.948 163.872 200.315C157.789 204.018 144.273 210.415 149.003 231.963C152.721 249.133 156.438 251.153 161.506 255.194C166.237 258.897 174.009 259.57 174.009 259.57C174.009 259.57 178.402 256.204 179.416 249.807C179.754 247.787 179.416 241.39 179.416 241.39C179.416 241.39 174.685 232.299 178.402 229.269C182.119 225.902 186.174 231.289 186.85 233.646C189.891 241.39 188.54 255.867 188.54 255.867C188.54 255.867 193.27 258.897 197.663 257.55C200.029 256.877 198.001 247.113 198.001 247.113C198.001 247.113 193.27 244.756 192.595 231.963Z" fill="#002F68"/>
<g id="Group_13">
<g id="Group_14">
<path id="Vector_64" d="M202.732 223.882L200.704 224.892V237.013L202.732 236.003V223.882Z" fill="#EB8382"/>
<path id="Vector_65" d="M200.705 224.892L200.367 224.556V236.34L200.705 237.013V224.892Z" fill="#C37A87"/>
<path id="Vector_66" d="M200.367 224.556L200.705 224.893L202.732 223.883L202.056 223.546L200.367 224.556Z" fill="white"/>
</g>
<g id="Group_15">
<path id="Vector_67" d="M201.719 225.229C200.705 225.902 198.678 227.922 198.002 228.596C193.271 232.636 184.823 235.329 175.699 235.329C166.238 235.329 158.128 232.636 153.397 228.596C152.045 227.249 150.694 225.902 150.018 224.555C149.342 223.209 149.004 220.852 148.666 219.505L148.328 221.862L148.666 228.596C148.666 228.932 148.666 228.932 148.666 229.269C148.666 237.686 160.831 244.42 175.699 244.42C186.513 244.42 195.974 240.716 200.367 235.666L202.395 225.229H201.719Z" fill="#C37A87"/>
<path id="Vector_68" d="M202.056 225.229C201.381 225.902 199.015 228.259 198.001 228.932C192.933 232.972 184.823 235.666 175.023 235.666C165.562 235.666 157.114 232.972 152.045 228.932C150.355 227.585 149.342 226.239 148.328 224.892C147.652 223.545 147.314 222.199 146.976 220.852V228.932C146.976 229.269 146.976 229.269 146.976 229.605C146.976 238.022 159.479 245.093 174.685 245.093C184.147 245.093 192.595 242.399 197.664 238.359C198.339 237.686 200.705 235.666 201.381 234.992V225.229H202.056Z" fill="url(#paint5_linear_42_3521)"/>
</g>
<g id="Group_16">
<path id="Vector_69" d="M179.078 196.275C175.699 193.918 171.306 193.918 166.575 196.949C158.803 201.325 150.693 213.109 149.003 225.566C150.693 230.28 156.775 232.3 157.789 231.627C159.141 219.506 166.237 208.059 175.023 202.672C175.023 202.672 175.361 202.672 175.361 202.335C177.726 200.989 180.092 200.315 182.119 200.315C183.133 200.315 184.147 200.315 184.822 200.315C185.836 200.315 186.512 200.652 186.512 200.652L179.078 196.275Z" fill="#C37A87"/>
</g>
<path id="Vector_70" d="M179.416 195.937C175.361 193.917 171.306 193.581 166.237 196.274C158.465 200.651 150.355 212.435 148.666 224.892C150.017 229.942 155.762 231.626 157.114 232.299C158.803 219.168 166.237 207.385 175.023 201.998C175.023 201.998 175.361 201.998 175.361 201.661C177.726 200.314 180.092 199.641 182.119 199.641C183.809 199.641 185.499 199.978 186.85 200.651L179.416 195.937Z" fill="url(#paint6_linear_42_3521)"/>
</g>
<path id="Vector_71" d="M162.52 414.443C163.872 417.81 166.237 424.88 168.603 427.91C171.982 432.287 163.872 433.297 158.465 434.307C152.721 434.98 143.259 428.247 139.88 422.523C136.838 416.8 135.825 408.383 135.825 408.046C144.273 413.433 152.721 416.8 162.52 414.443Z" fill="url(#paint7_linear_42_3521)"/>
<path id="Vector_72" d="M121.97 406.026C122.308 408.046 122.984 411.749 123.998 415.453C125.687 421.176 122.308 425.553 117.239 421.513C112.171 417.81 107.102 411.413 105.75 406.026C104.736 402.322 104.061 395.252 103.723 392.559C108.454 398.282 114.536 402.659 121.97 406.026Z" fill="url(#paint8_linear_42_3521)"/>
</g>
</g>
<defs>
<linearGradient id="paint0_linear_42_3521" x1="278.392" y1="580.64" x2="278.392" y2="15.8518" gradientUnits="userSpaceOnUse">
<stop stop-color="#EB8382"/>
<stop offset="1" stop-color="#EB8382" stop-opacity="0"/>
</linearGradient>
<linearGradient id="paint1_linear_42_3521" x1="340.602" y1="358.811" x2="198.641" y2="605.599" gradientUnits="userSpaceOnUse">
<stop stop-color="#DFB8BF"/>
<stop offset="0.9617" stop-color="#EB8382"/>
</linearGradient>
<linearGradient id="paint2_linear_42_3521" x1="133.739" y1="396.561" x2="205.365" y2="399.68" gradientUnits="userSpaceOnUse">
<stop stop-color="#4499D9"/>
<stop offset="1" stop-color="#6E6CC1"/>
</linearGradient>
<linearGradient id="paint3_linear_42_3521" x1="107.272" y1="387.875" x2="145.008" y2="388.94" gradientUnits="userSpaceOnUse">
<stop stop-color="#4499D9"/>
<stop offset="1" stop-color="#6E6CC1"/>
</linearGradient>
<linearGradient id="paint4_linear_42_3521" x1="198.002" y1="191.507" x2="198.002" y2="230.332" gradientUnits="userSpaceOnUse">
<stop stop-color="#6379E3"/>
<stop offset="1" stop-color="#D574C9"/>
</linearGradient>
<linearGradient id="paint5_linear_42_3521" x1="174.516" y1="220.852" x2="174.516" y2="245.093" gradientUnits="userSpaceOnUse">
<stop stop-color="#EB8382"/>
<stop offset="1" stop-color="#EB8382" stop-opacity="0"/>
</linearGradient>
<linearGradient id="paint6_linear_42_3521" x1="167.758" y1="194.338" x2="167.758" y2="232.299" gradientUnits="userSpaceOnUse">
<stop stop-color="#EB8382"/>
<stop offset="1" stop-color="#EB8382" stop-opacity="0"/>
</linearGradient>
<linearGradient id="paint7_linear_42_3521" x1="139.555" y1="413.834" x2="161.93" y2="415.234" gradientUnits="userSpaceOnUse">
<stop stop-color="#4499D9"/>
<stop offset="1" stop-color="#6E6CC1"/>
</linearGradient>
<linearGradient id="paint8_linear_42_3521" x1="106.024" y1="399.274" x2="119.867" y2="399.735" gradientUnits="userSpaceOnUse">
<stop stop-color="#4499D9"/>
<stop offset="1" stop-color="#6E6CC1"/>
</linearGradient>
</defs>
</svg>
