<svg width="191" height="152" viewBox="0 0 191 152" fill="none" xmlns="http://www.w3.org/2000/svg">
<path fill-rule="evenodd" clip-rule="evenodd" d="M173.932 8.26875C157.284 -1.83451 131.107 -1.82508 114.088 16.7173C109.489 21.7287 105.705 26.2632 102.27 30.3803L102.269 30.3817C100.51 32.4903 98.8419 34.4894 97.2024 36.387C92.3725 41.9773 87.8148 46.655 81.987 50.5102C70.328 58.223 53.677 62.5843 19.7688 64.6393C3.01146 65.6549 -7.92823 74.4597 -13.2227 86.9322C-14.0563 88.896 -14.7504 90.9518 -15.305 93.0836C-9.34046 85.6616 -0.344826 80.775 11.6945 80.045C43.8892 78.0928 59.4869 73.9539 70.3372 66.7724C75.7641 63.1806 80.0262 58.8125 84.5956 53.5211C86.1339 51.7397 87.7098 49.8501 89.3772 47.8508L89.3774 47.8505L89.3779 47.8499C92.6513 43.925 96.2767 39.5778 100.66 34.7991C117.194 16.7754 142.597 16.7848 158.75 26.5926C166.836 31.5017 172.656 38.8971 173.855 47.7722C175.056 56.6555 171.611 66.9012 161.413 77.4734C155.221 83.892 154.717 93.8475 155.627 105.599C155.881 108.877 156.244 112.291 156.617 115.79L156.617 115.79C157.571 124.749 158.585 134.27 157.971 143.529C157.293 153.752 154.63 163.718 147.713 172.382C150.598 170.641 153.166 168.795 155.449 166.859C167.568 156.586 171.73 143.727 172.62 130.323C173.261 120.678 172.208 110.805 171.207 101.413L171.207 101.413L171.207 101.411L171.207 101.41C170.812 97.7086 170.426 94.0817 170.154 90.5732C169.199 78.2442 169.659 67.3157 176.528 60.1981C187.112 49.2315 190.553 38.7524 189.343 29.8068C188.133 20.8529 182.247 13.3151 173.932 8.26875ZM-14.1432 86.5415C-15.2888 89.2402 -16.1754 92.1043 -16.8046 95.0942C-18.2481 97.1812 -19.4778 99.4371 -20.4937 101.832C-21.7663 104.831 -22.7027 108.045 -23.3053 111.414C-30.7464 115.029 -36.0322 121.033 -39.1696 128.43C-42.516 136.32 -43.411 145.774 -41.9062 155.578C-54.3327 157.782 -62.6778 165.224 -66.9581 175.299C-71.7756 186.638 -71.4285 201.265 -66.0772 215.446C-55.3643 243.837 -24.5603 270.565 25.4849 265.998C54.8677 263.317 72.9772 256.423 83.9445 247.134C94.9332 237.827 98.6883 226.17 99.4879 214.137C99.5668 212.95 99.6168 211.758 99.6423 210.564C105.527 207.925 110.336 204.904 114.25 201.584C118.771 197.747 122.088 193.519 124.488 189.032C131.347 186.105 136.875 182.708 141.312 178.944C142.943 177.561 144.425 176.13 145.771 174.655C149.717 172.484 153.137 170.13 156.095 167.622C168.482 157.122 172.716 143.972 173.618 130.389C174.264 120.652 173.197 110.64 172.193 101.218L172.193 101.217C171.801 97.5359 171.418 93.9451 171.151 90.496C170.194 78.1361 170.723 67.6531 177.247 60.8925C187.976 49.7761 191.596 39.0067 190.334 29.6728C189.074 20.3472 182.955 12.5745 174.451 7.41386C157.461 -2.89685 130.742 -2.90627 113.352 16.0412C108.738 21.0676 104.923 25.6395 101.479 29.7678L101.479 29.7679L101.478 29.7684L101.476 29.7705L101.476 29.771C99.7222 31.8729 98.0643 33.8598 96.4457 35.7332C91.6365 41.2996 87.1493 45.8962 81.4353 49.6762C70.0105 57.234 53.5899 61.5877 19.7083 63.6412C2.57064 64.6798 -8.70113 73.7212 -14.1432 86.5415ZM-66.0378 175.69C-61.8917 165.931 -53.8319 158.713 -41.7468 156.566C-41.0308 160.79 -39.8718 165.071 -38.2737 169.313C-37.8769 170.367 -37.453 171.418 -37.002 172.465C-37.3667 173.152 -37.7034 173.859 -38.012 174.583C-41.6341 183.09 -41.3691 194.049 -37.3544 204.665C-29.3147 225.923 -6.20221 245.92 31.3181 242.504C53.3256 240.5 66.9121 235.347 75.1506 228.384C79.568 224.651 82.4296 220.414 84.2279 215.901C89.6128 214.481 94.3927 212.841 98.6316 211.009C98.604 212.032 98.5577 213.053 98.4901 214.071C97.7024 225.925 94.0193 237.29 83.2982 246.371C72.556 255.469 54.6843 262.33 25.3941 265.003C-24.1971 269.528 -54.5851 243.07 -65.1416 215.093C-70.4249 201.092 -70.7318 186.739 -66.0378 175.69ZM84.6616 214.751C89.9004 213.337 94.5432 211.713 98.6542 209.909C98.7171 205.47 98.4461 201.005 98.0547 196.6C94.5537 197.24 90.8562 197.808 86.9516 198.298C86.9812 200.088 86.9491 201.876 86.831 203.65C86.579 207.434 85.9353 211.172 84.6616 214.751ZM85.9545 198.422C85.9802 200.147 85.9473 201.87 85.8332 203.584C85.5708 207.525 84.8782 211.39 83.4813 215.063C75.3655 217.169 65.8554 218.782 54.7235 219.8C6.39987 224.217 -23.9931 199.651 -35.8905 172.514C-32.0751 165.647 -25.2639 160.938 -15.3572 160.339C-14.1594 160.267 -12.994 160.19 -11.8597 160.109C3.72057 184.163 34.0551 203.27 78.6265 199.198C81.1457 198.968 83.5876 198.709 85.9545 198.422ZM86.9287 197.293C90.8125 196.803 94.4873 196.237 97.9637 195.6C97.7415 193.208 97.4885 190.836 97.239 188.497L97.2389 188.497V188.496L97.2052 188.181C94.9174 188.452 92.5636 188.698 90.1418 188.919C88.8797 189.035 87.6284 189.132 86.388 189.213C86.6419 191.877 86.8505 194.585 86.9287 197.293ZM85.389 189.274C85.6468 191.965 85.8576 194.691 85.933 197.417C83.5459 197.707 81.0809 197.969 78.5355 198.202C34.6315 202.213 4.7517 183.561 -10.7204 160.025C-5.46142 159.628 -0.887932 159.13 3.12902 158.522C20.2751 177.668 47.7944 191.437 85.389 189.274ZM86.291 188.217C87.5332 188.137 88.7865 188.039 90.0508 187.924C92.4686 187.703 94.8174 187.457 97.0994 187.186C96.7994 184.361 96.5142 181.589 96.3053 178.895C95.4595 167.984 95.8625 158.285 101.968 151.964C111.336 142.265 114.374 133.007 113.305 125.111C112.236 117.207 107.035 110.548 99.6796 106.088C84.9505 97.157 61.791 97.1665 46.7357 113.556C42.6619 117.991 39.312 122.003 36.2694 125.646L36.2687 125.647C34.7098 127.514 33.2315 129.284 31.7778 130.965C27.4978 135.915 23.4561 140.06 18.2868 143.477C13.2323 146.818 7.12158 149.448 -1.31261 151.477C0.188919 153.515 1.79795 155.51 3.51424 157.451C13.9264 155.828 20.4165 153.446 25.4366 150.136C29.2069 147.649 32.1708 144.624 35.3566 140.948C36.4271 139.713 37.5256 138.4 38.6885 137.011C40.9746 134.28 43.5098 131.251 46.5717 127.925C58.1671 115.33 75.9775 115.34 87.302 122.191C92.9731 125.622 97.071 130.801 97.9158 137.03C98.7618 143.267 96.33 150.436 89.1906 157.811C84.9221 162.22 84.5596 169.075 85.1948 177.251C85.3712 179.522 85.6244 181.89 85.8842 184.32V184.32C86.0214 185.603 86.1604 186.904 86.291 188.217ZM4.30928 158.338C14.4417 156.703 20.9184 154.313 25.9871 150.97C29.8712 148.409 32.9057 145.303 36.1123 141.603C37.2033 140.344 38.3114 139.02 39.4792 137.625C41.7557 134.905 44.2594 131.913 47.3074 128.602C58.531 116.412 75.8008 116.402 86.7844 123.047C92.2674 126.364 96.1307 131.308 96.9249 137.164C97.718 143.012 95.4668 149.89 88.4721 157.115C83.8578 161.882 83.5649 169.183 84.1978 177.329C84.3789 179.659 84.636 182.064 84.8981 184.515C85.031 185.759 85.1652 187.014 85.2915 188.278C48.3499 190.393 21.2817 177.006 4.30928 158.338ZM2.33953 157.628C0.666946 155.709 -0.903069 153.737 -2.37023 151.725C-5.9372 152.543 -9.91019 153.259 -14.3787 153.881C-13.4408 155.63 -12.4277 157.361 -11.3396 159.068C-6.14575 158.686 -1.62762 158.209 2.33953 157.628ZM-12.4716 159.149C-13.5314 157.462 -14.5193 155.752 -15.4352 154.025C-21.5839 154.846 -28.6516 155.495 -36.8598 155.992C-38.2022 156.074 -39.5023 156.211 -40.7603 156.403C-40.0559 160.557 -38.9149 164.774 -37.3379 168.961C-37.0356 169.763 -36.7172 170.565 -36.3828 171.365C-32.3373 164.563 -25.3488 159.941 -15.4175 159.341C-14.4126 159.28 -13.4308 159.216 -12.4716 159.149ZM-36.4821 173.645C-24.1941 200.875 6.48425 225.213 54.8145 220.796C65.659 219.804 74.9929 218.248 83.0173 216.214C81.2593 220.338 78.5558 224.197 74.5052 227.621C66.4917 234.393 53.1428 239.513 31.2274 241.508C-5.84039 244.882 -28.5365 225.154 -36.4191 204.311C-40.3655 193.876 -40.5901 183.19 -37.0919 174.975C-36.8999 174.524 -36.6967 174.08 -36.4821 173.645ZM113.603 200.821C109.863 203.994 105.273 206.9 99.6589 209.459C99.6975 205.106 99.4258 200.726 99.0422 196.416C108.382 194.654 116.3 192.368 123.001 189.65C120.711 193.632 117.65 197.387 113.603 200.821ZM123.771 188.25C116.929 191.137 108.739 193.563 98.9511 195.416C98.7277 193.014 98.4742 190.637 98.2251 188.302L98.225 188.301L98.1993 188.061C108.965 186.74 118.248 184.869 126.243 182.533C125.564 184.479 124.747 186.387 123.771 188.25ZM126.629 181.376C118.554 183.784 109.115 185.714 98.0934 187.066C97.7933 184.241 97.5088 181.481 97.3023 178.818C96.4541 167.876 96.9267 158.622 102.687 152.659C112.2 142.81 115.417 133.261 114.296 124.977C113.176 116.701 107.742 109.807 100.198 105.233C85.1274 96.0948 61.4263 96.0853 45.9993 112.88C41.9116 117.33 38.5303 121.379 35.4781 125.033L35.4778 125.034C33.9236 126.895 32.4547 128.654 31.0214 130.311C26.7621 135.237 22.791 139.301 17.7354 142.643C12.7163 145.96 6.60577 148.58 -1.94953 150.6C-6.32356 144.502 -9.74654 138.036 -12.2121 131.497C-14.9212 124.311 -16.4726 117.042 -16.8626 110.077C-14.3018 109.383 -11.5397 108.932 -8.57491 108.753C21.969 106.9 36.9788 102.968 47.4922 96.0064C52.7471 92.527 56.8559 88.3059 61.2075 83.2648C62.685 81.5532 64.1875 79.7507 65.7721 77.8499L65.7737 77.8481L65.774 77.8476L65.7743 77.8473L65.7745 77.847L65.7754 77.8459C68.8688 74.1352 72.2747 70.0495 76.4163 65.533C91.727 48.8364 115.279 48.8271 130.257 57.9251C137.738 62.4689 143.028 69.2529 144.116 77.3071C145.203 85.3529 142.112 94.786 132.586 104.665C126.381 111.1 125.971 120.974 126.831 132.088C127.076 135.254 127.424 138.526 127.78 141.865V141.866V141.866V141.866L127.78 141.866C128.682 150.331 129.629 159.226 129.052 167.916C128.748 172.508 128.017 177.029 126.629 181.376ZM-13.1478 131.85C-10.6967 138.351 -7.31291 144.775 -3.0044 150.844C-6.52735 151.637 -10.455 152.333 -14.8754 152.94C-16.3069 150.182 -17.5528 147.384 -18.6124 144.572C-22.8141 133.422 -24.0836 122.063 -22.4082 112.094C-20.9699 111.423 -19.45 110.842 -17.8479 110.359C-17.4307 117.369 -15.8587 124.659 -13.1478 131.85ZM-19.5482 144.925C-18.5154 147.666 -17.3083 150.392 -15.9277 153.081C-21.9568 153.875 -28.8836 154.508 -36.9203 154.994C-38.296 155.078 -39.6291 155.219 -40.9197 155.416C-42.398 145.771 -41.5105 136.511 -38.249 128.82C-35.2978 121.862 -30.3969 116.172 -23.5078 112.633C-25.0427 122.632 -23.7017 133.903 -19.5482 144.925ZM125.205 187.629C131.47 184.85 136.554 181.669 140.665 178.182C141.452 177.514 142.204 176.835 142.922 176.145C138.407 178.389 133.265 180.413 127.418 182.184C126.805 184.031 126.073 185.849 125.205 187.629ZM127.785 181.025C134.493 178.954 140.235 176.545 145.143 173.859C153.239 164.923 156.248 154.385 156.973 143.463C157.581 134.296 156.582 124.913 155.631 115.985C155.256 112.464 154.888 109.014 154.63 105.676C153.722 93.9556 154.157 83.5548 160.693 76.7792C170.747 66.3568 174.012 56.4013 172.864 47.9061C171.715 39.4026 166.128 32.2421 158.231 27.4473C142.42 17.8473 117.56 17.8566 101.397 35.4751C97.0272 40.2391 93.4329 44.5491 90.169 48.4631L90.1688 48.4633L90.1681 48.4642C88.4961 50.4691 86.9109 52.37 85.3524 54.1747C80.7623 59.4901 76.4297 63.9392 70.8891 67.6063C59.8045 74.9429 43.9764 79.0894 11.755 81.0432C-0.942467 81.8131 -10.1214 87.2941 -15.8668 95.4971C-16.7513 99.7871 -17.0992 104.347 -16.9116 109.055C-14.3456 108.376 -11.5869 107.933 -8.63546 107.754C21.8818 105.903 36.661 101.979 46.9401 95.1726C52.0814 91.7685 56.1197 87.6285 60.4505 82.6114C61.9077 80.9233 63.4009 79.1322 64.9807 77.2372L64.9822 77.2354L64.9825 77.235L64.9831 77.2343C68.0862 73.5122 71.5236 69.389 75.6792 64.8572C91.3616 47.7552 115.456 47.7646 130.777 57.0705C138.446 61.7287 143.969 68.7477 145.107 77.1732C146.246 85.607 142.976 95.3302 133.306 105.36C127.445 111.437 126.965 120.866 127.828 132.01C128.068 135.117 128.413 138.354 128.766 141.671C129.671 150.167 130.633 159.2 130.05 167.982C129.756 172.412 129.07 176.791 127.785 181.025ZM-17.9009 109.332C-18.0754 105.327 -17.8697 101.421 -17.2807 97.6856C-18.14 99.1299 -18.9041 100.645 -19.5732 102.222C-20.7278 104.944 -21.6005 107.851 -22.1917 110.898C-20.8297 110.297 -19.3995 109.773 -17.9009 109.332Z" fill="white" fill-opacity="0.2"/>
</svg>
